<svg width="1112" height="480" viewBox="0 0 1112 480" fill="none" xmlns="http://www.w3.org/2000/svg">
<path d="M518.534 157.089L529.63 172.623H525.747L504.11 187.048L503 214.233L533.514 252.514L519.089 263.055L512.986 301.336L527.966 334.068L524.082 340.171L520.199 352.931L524.637 365.137L535.733 379.562L553.486 385.664L562.363 382.89L574.014 394.541L588.438 401.199H606.192L612.849 396.76L619.507 399.534L630.603 401.199L638.925 399.534L644.473 394.541L649.466 399.534L656.123 403.418H666.664L674.986 399.534L677.205 401.199C678.87 402.493 682.31 405.082 682.753 405.082H699.952L710.493 401.199L713.822 391.767L718.26 397.87L727.692 401.199L734.349 399.534L739.342 395.651L749.884 400.644L775.404 394.541L803.699 387.329L829.774 374.014L854.185 354.041L874.158 327.411L845.308 331.294L826.445 327.411L807.582 322.973L793.158 312.431L787.61 292.459L795.931 269.158L814.24 259.726L817.568 239.199L814.24 227.548L799.26 220.89L807.582 215.342L812.021 195.925L807.027 188.712L795.931 187.048L798.151 180.39V167.075L793.158 159.308L778.178 149.877L780.397 138.781L776.514 125.466L774.849 118.808L765.418 113.26L738.233 118.808L740.452 112.151V97.1712L736.014 87.7397L722.144 80.5274H702.171L699.397 73.3151L693.849 69.9863L683.863 66.1027L661.671 73.3151L656.123 66.1027L647.801 60H634.486L616.178 69.9863L609.521 65.5479L596.76 64.4384L588.993 68.8767L586.774 80.5274H576.233L558.479 86.0753L550.712 94.9521L549.603 106.048L556.815 121.027H552.377H537.952L524.637 124.911L516.315 132.123L514.096 143.774L518.534 157.089Z" fill="#BAE6FD"/>
<path d="M537.67 127.351C536.107 127.881 533.764 128.159 531.891 128.684C529.667 129.306 527.835 129.799 526.188 130.23L528.266 129.098C525.292 131.533 523.048 133.283 519.706 136.036L521.401 133.092C521.292 133.597 521.179 134.123 521.062 134.674C520.543 137.122 519.851 140.686 519.06 144.72L518.89 142.176C520.257 146.352 521.788 151.051 523.178 155.541L522.517 154.244C528.213 162.594 533.002 170.214 531.845 171.041C531.845 171.041 531.845 171.041 531.845 171.041C531.823 171.057 531.799 171.07 531.774 171.081C531.289 171.287 529.227 169.369 528.516 169.374C527.804 169.38 524.921 171.816 522.471 168.75C520.757 166.584 518.192 162.721 515.801 159.041C515.682 158.87 515.412 158.35 515.348 158.151C514.074 153.682 512.926 149.466 512.413 147.994C512.066 147.002 511.605 145.919 511.117 144.767C511.007 144.427 510.942 143.537 511.012 143.186C511.145 141.978 511.288 140.7 511.503 139.412C512.015 136.344 512.483 133.818 512.898 131.472C513.007 130.929 513.615 129.854 514.037 129.495C516.79 127.044 519.174 124.853 521.983 121.848C522.27 121.603 523.139 121.123 523.502 121.02C523.995 120.818 524.499 120.607 525.019 120.385C528.111 119.993 531.203 119.601 534.295 119.209C535.159 118.903 536.14 118.611 537.166 118.333C537.325 118.288 537.787 118.219 537.952 118.22C541.552 118.29 545.609 118.669 547.493 118.641C549.371 118.614 550.519 118.271 552.377 118.214C552.499 118.21 552.625 118.208 552.754 118.207C553.852 118.196 555.226 118.283 556.815 118.371L554.422 122.18C553.732 120.517 552.925 118.606 551.915 116.585C549.322 111.395 547.884 110.05 546.363 107.608C546.173 107.204 545.976 106.134 546.025 105.69C546.02 105.107 546.035 104.483 546.084 103.778C546.257 101.274 546.737 97.9914 547.149 94.5958C547.205 94.0814 547.674 92.9806 548.018 92.5942C549.702 90.7495 551.392 88.8347 552.819 86.9764C553.193 86.3804 553.567 85.7844 553.941 85.1884C553.424 85.3976 552.907 85.6067 552.39 85.8159C553.401 84.5578 554.221 83.8384 555.061 83.0839C555.436 82.662 556.584 81.9033 557.124 81.7394C557.935 81.5894 558.764 81.4288 559.797 81.1099C562.68 80.2209 564.003 79.2959 565.942 78.6926C567.529 78.1988 569.798 77.8999 571.849 77.2334C574.062 76.5155 574.185 76.1458 574.742 75.7566C575.044 75.6651 575.918 75.5263 576.233 75.5291C576.46 75.457 576.739 75.3985 577.178 75.371C577.609 75.3448 582.856 75.2081 586.774 75.1116L581.454 79.514C581.815 77.3271 582.109 75.56 582.155 75.3099C582.905 71.2819 583.577 70.153 584.239 67.9711C584.453 66.8986 585.638 65.2089 586.592 64.6746C587.233 64.394 587.948 64.0484 588.826 63.565C590.704 62.5299 592.579 61.4668 594.445 60.3861C595.017 60.0655 596.511 59.7262 597.165 59.7887C601.439 60.1352 605.724 60.4056 609.946 60.6495C610.492 60.7017 611.795 61.149 612.248 61.4569C614.538 62.8894 616.811 64.2999 619.042 65.6904L613.706 65.4537C615.96 64.1326 618.178 62.8383 620.35 61.5918C624.103 59.4383 628.058 57.3087 631.925 55.3048C632.448 55.0253 633.893 54.6466 634.486 54.6517C635.055 54.6638 635.621 54.677 636.184 54.6913C635.344 54.9079 634.799 55.1191 634.486 55.3197C633.967 55.3152 632.703 55.6466 632.245 55.8912C631.966 56.4009 632.174 56.6149 632.648 56.63C633.024 56.4294 634.061 56.1576 634.486 56.1613C636.204 57.1703 643.717 57.3424 639.144 55.1139C642.39 55.3775 645.07 55.1842 647.801 55.0166C648.542 55.023 650.155 55.5384 650.748 55.9813C652.294 56.9755 653.852 57.9924 655.485 59.2604C656.773 60.2608 657.814 61.1811 658.993 62.1891C659.221 62.359 659.799 62.9171 659.97 63.1437C660.856 64.493 661.859 65.975 663.34 67.8917C664.005 68.7507 664.693 69.6079 665.387 70.4566L660.222 68.8563C667.201 66.3548 673.905 63.4624 676.508 64.6379C678.634 63.8531 680.714 63.1491 682.69 62.4945C683.286 62.3066 684.658 62.3352 685.238 62.5667C689.1 64.0438 692.523 65.414 695.319 66.2073C695.448 66.2589 695.817 66.4368 695.935 66.5095C697.761 67.3823 699.334 67.9283 700.619 67.9802C701.019 68.1956 701.507 68.5106 702.051 68.892C702.746 69.3169 703.926 70.7011 704.212 71.4634C704.853 73.5616 705.537 76.6119 706.14 79.001L702.171 76.2755C703.15 76.3937 704.026 76.4861 704.699 76.5231C706.379 76.6153 715.02 76.8522 722.144 77.0256C722.514 77.0288 723.432 77.2469 723.759 77.4206C727.571 79.5218 730.891 81.341 732.029 81.9451C733.508 82.7306 735.537 83.8027 737.528 84.8278C737.975 85.0652 738.772 85.8824 738.983 86.3422C739.972 88.4214 740.958 90.4366 741.654 91.7121C742.394 93.0707 743.351 94.1064 744.248 95.3847C744.416 95.749 744.651 96.7703 744.648 97.1712C745.003 99.2141 745.081 101.599 743.734 105.25C743.807 108.075 743.842 110.21 743.843 112.151C743.841 112.379 743.743 113.007 743.669 113.223C742.932 115.437 742.237 117.368 741.315 119.836L737.583 115.625C738.514 115.469 739.519 115.304 740.638 115.122C741.875 114.92 742.084 115.235 742.801 115.089C744.279 114.787 746.741 114.021 749.371 113.451C753.698 112.516 756.32 112.734 755.612 111.728C758.433 110.959 761.254 110.191 764.076 109.422C764.262 109.423 764.449 109.425 764.635 109.427C765.327 109.292 766.797 109.525 767.402 109.888C768.036 110.468 768.67 111.049 769.305 111.629C770.77 112.216 772.235 112.803 773.7 113.389C772.439 113.639 774.572 115.059 776.514 115.978C777.08 116.318 777.88 117.371 778.035 118.012C778.676 119.855 779.501 121.296 779.522 119.541C779.831 121.188 780.139 122.835 780.448 124.482L780.407 124.33C781.295 128.221 782.182 132.113 783.069 136.004C782.522 135.938 782.519 136.807 782.818 138.075C782.89 138.332 782.924 139.013 782.87 139.275C782.014 142.624 781.736 149.448 782.612 148.8C782.485 149.429 782.358 150.058 782.23 150.687L780.38 146.38C780.385 146.383 780.389 146.386 780.394 146.388C784.906 149.809 789.504 152.235 795.138 156.163C795.435 156.354 796.095 157 796.284 157.299C796.299 157.325 796.315 157.352 796.33 157.379C799.787 163.367 799.284 162.919 799.703 165.147C799.85 165.362 799.998 165.578 800.146 165.793C800.311 166.055 800.525 166.766 800.522 167.075C800.563 168.44 800.604 169.804 800.645 171.168C801.918 175.81 801.298 177.479 800.759 180.39C800.758 180.566 800.682 181.049 800.625 181.215C799.805 182.7 798.88 184.579 797.953 187.722L796.248 184.941C797.751 185.114 799.521 185.24 801.639 185.297C802.973 185.948 804.959 186.488 807.293 186.944C807.661 187.003 808.288 187.386 808.498 187.694C809.911 189.941 811.696 192.43 813.534 194.877C813.755 195.203 813.906 195.952 813.815 196.335C813.217 199.512 812.694 202.701 812.242 205.397C812.094 206.274 812.369 206.352 812.191 207.524C811.878 209.572 810.766 213.789 810.507 216.011C810.376 216.561 809.719 217.529 809.246 217.838C808.563 218.41 808.195 218.844 808.4 219.023C806.129 220.217 803.858 221.411 801.587 222.605C801.328 222.809 801.07 223.013 800.811 223.217L800.396 218.335C802.06 218.92 803.723 219.505 805.387 220.091C805.494 219.824 805.601 219.557 805.708 219.291C808.307 221.255 812.471 223.068 815.594 224.5C816.292 224.818 817.242 225.892 817.446 226.632C817.74 227.706 817.994 228.67 818.158 229.452C818.29 230.088 817.948 230.331 818.397 232.298C818.749 233.844 819.46 236.243 820.087 238.479C820.153 238.72 820.196 239.372 820.154 239.618C819.967 240.733 819.778 241.805 819.591 242.705C819.849 243.852 820.108 244.999 820.366 246.145C819.798 251.135 818.373 252.69 817.813 255.583C817.767 255.82 817.44 257.918 817.091 260.188C816.968 260.91 816.216 261.965 815.563 262.294C813.115 263.581 810.447 264.99 810.201 265.132C806.586 267.209 807.952 267.567 797.736 272.661L799.643 270.483C799.544 270.749 799.441 271.022 799.336 271.302C798.561 273.359 797.641 274.919 796.96 276.785C795.756 280.082 792.928 290.302 793.322 291.326C792.903 292.01 792.442 292.937 791.961 294.013L792.061 291.222C793.064 296.337 795.424 304.068 795.953 306.761C796.147 307.758 795.659 308.131 796.375 311.162C796.401 311.272 796.43 311.389 796.462 311.514L795.181 309.663C797.361 311.317 802.503 314.562 804.928 316.424C807.547 318.439 808.278 319.537 809.428 320.447L808.299 319.927C808.339 319.938 808.379 319.949 808.419 319.96C809.811 320.32 811.19 320.247 813.097 320.698C818.259 321.924 822.893 323.497 827.101 324.623L827.023 324.606C827.67 324.76 828.307 324.903 828.935 325.034C835.113 326.323 840.831 326.549 846.175 327.082L844.734 327.032C845.297 326.896 845.857 326.765 846.415 326.64C847.864 326.519 849.31 326.573 850.819 326.372C858.143 325.4 865.839 324.406 873.62 323.418C877.602 322.905 879.808 326.63 877.38 329.828C870.589 338.742 863.665 347.769 857.133 356.252C857.022 356.398 856.661 356.779 856.519 356.894C855.815 357.454 855.116 358.012 854.42 358.566C847.562 364.032 829.702 376.636 835.849 374.958C835.414 375.437 834.285 376.398 832.743 377.643C832.584 377.771 832.089 378.098 831.906 378.19C825.243 381.536 812.006 387.559 809.035 389.062C807.778 389.698 806.633 390.337 805.555 390.963C805.388 391.046 804.887 391.239 804.707 391.283C802.337 392.025 800.24 392.774 798.105 393.323C790.408 395.302 784.467 396.601 776.479 398.758C776.466 398.761 776.429 398.771 776.416 398.774C774.351 399.299 772.15 399.878 769.746 400.538C766.715 401.372 763.569 402.691 761.758 403.117C759.576 403.63 757.106 403.673 754.275 404.315C753.278 404.542 752.156 404.804 750.947 405.091C750.224 405.257 748.593 405.099 747.926 404.776C744.796 403.288 741.015 401.523 737.37 399.816L742.172 399.289C740.442 400.646 738.746 401.975 737.189 403.186C736.86 403.437 735.874 403.925 735.471 404.022C733.635 404.481 731.96 404.892 730.564 405.22C729.846 405.389 729.37 405.325 728.72 405.311C728.166 405.445 726.816 405.391 726.281 405.196C725.937 404.959 725.521 404.699 724.9 404.419C722.225 403.213 719.367 402.065 717.049 401.302C716.571 401.129 715.612 400.424 715.316 400.011C713.382 397.467 711.835 395.991 711.597 397.103C711.082 396.227 710.555 395.372 710.018 394.534L718.257 393.333C716.932 396.483 715.842 399.618 714.83 402.729C714.467 403.731 713.086 405.154 712.083 405.514C708.561 406.912 705.13 408.368 701.649 409.687C701.304 409.811 700.318 409.993 699.952 409.99C699.811 409.991 699.666 409.992 699.517 409.993C694.794 410.02 688.981 410.013 682.753 410.001C682.132 409.996 681.76 409.907 681.486 409.84C681.281 409.788 681.125 409.736 680.991 409.688C680.728 409.592 680.62 409.541 680.479 409.477C680.259 409.373 680.109 409.292 679.982 409.221C679.736 409.084 679.557 408.972 679.394 408.87C679.067 408.663 678.796 408.479 678.531 408.296C678.004 407.933 677.518 407.581 677.035 407.226C676.072 406.518 675.141 405.81 674.193 405.072L674.262 405.124C673.525 404.57 672.786 404.014 672.045 403.456L677.06 403.977C674.285 405.268 671.491 406.571 668.738 407.861C668.315 408.053 667.129 408.325 666.664 408.321C663.051 408.326 659.5 408.34 656.123 408.367C655.536 408.362 654.134 407.993 653.63 407.693C651.286 406.351 649.035 405.073 646.925 403.89C646.695 403.753 646.087 403.291 645.9 403.1C644.052 401.315 642.331 399.674 640.783 398.23L647.963 398.419C647.513 398.853 647.082 399.272 646.67 399.676C644.968 401.344 643.742 402.607 642.683 403.71C642.176 404.159 640.692 404.917 640.027 405.044C637.321 405.794 635.376 406.366 631.779 407.082C631.349 407.164 630.145 407.201 629.713 407.132C627.586 406.811 624.908 406.344 621.2 405.627C620.359 405.465 619.52 405.299 618.668 405.129C618.385 405.084 617.594 404.869 617.331 404.756C615.321 403.803 613.233 402.803 610.824 401.68C610.817 401.677 610.81 401.674 610.803 401.671L615.8 401.186C613.452 402.614 611.114 403.928 608.869 405.214C608.322 405.572 606.845 406.031 606.192 406.025C600.645 405.648 595.523 405.396 591.025 406.413C590.147 406.378 589.285 406.348 588.438 406.322C587.958 406.318 586.726 406.055 586.291 405.85C580.997 403.206 576.299 401.044 572.101 398.685C571.793 398.54 571.025 398.011 570.786 397.769C569.463 396.217 568.237 394.663 567.118 393.056C566.307 392.678 565.496 392.3 564.685 391.922C563.847 391.094 563.008 390.266 562.169 389.438C562.116 388.972 562.062 388.505 562.008 388.039C561.241 387.257 560.431 386.463 559.591 385.662L563.532 386.632C560.687 387.596 557.711 388.713 554.788 389.828C554.166 390.017 552.681 390.006 552.068 389.79C547.277 388.466 542.597 387.217 538.99 385.972C537.607 385.495 535.96 384.92 534.114 384.27C533.484 384.048 532.189 383.131 531.786 382.597C528.733 378.568 524.849 373.396 520.856 368.045C520.672 367.801 520.256 367.055 520.155 366.767C518.727 362.655 517.278 358.457 515.918 354.488C515.687 353.835 515.633 352.266 515.841 351.605C517.379 346.869 518.823 342.466 520.002 338.929C520.074 338.701 520.354 338.082 520.484 337.881C521.443 336.459 522.299 335.198 523.022 334.145C523.627 333.263 524.114 332.518 524.522 331.877L524.254 335.767C522.786 332.561 522.271 332.001 522.049 328.978C521.407 327.789 520.764 326.599 520.121 325.409C519.514 324.759 518.907 324.108 518.3 323.457C515.351 317.037 512.242 309.37 509.385 302.984C509.166 302.495 508.986 301.24 509.075 300.712C509.186 300.055 509.292 299.409 509.392 298.776C511.01 288.584 512.808 274.396 514.745 262.362C514.888 261.509 515.791 260.007 516.493 259.503C519.467 257.337 522.311 255.319 524.905 253.569C526.827 252.273 529.195 250.915 531.353 249.558L530.651 254.796C529.985 253.829 529.321 252.907 528.669 252.092C525.657 248.327 524.174 248.011 520.347 243.238C515.014 236.586 506.562 224.816 500.202 216.463C499.819 215.973 499.394 214.708 499.425 214.087C499.582 211.608 499.701 209.35 499.763 207.444C499.859 204.485 499.557 203.091 499.602 201.047C499.712 195.974 499.868 191.44 499.931 186.877C499.984 185.807 500.893 184.155 501.79 183.568C504.359 181.754 506.914 179.896 509.578 177.848C517.432 173.721 517.458 175.135 520.4 174.617C521.599 174.405 524.025 173.791 526.194 173.295L525.747 173.431C527.528 174.108 529.105 174.752 529.521 175.119C530.154 175.676 527.789 176.394 528.677 177.008C527.645 177.056 526.671 177.094 525.747 177.123L528.243 176.367C521.278 181.331 517.354 183.328 510.476 186.976C508.998 187.966 507.52 188.956 506.042 189.946L507.59 187.19C507.24 196.252 506.89 205.315 506.539 214.377L505.77 212.025C508.898 215.932 512.026 219.839 515.154 223.746C515.791 225.083 516.428 226.419 517.065 227.756C517.065 227.757 517.064 227.757 517.063 227.758C520.556 232.76 522.839 234.239 525.039 236.685C528.492 240.523 532.384 245.057 536.573 250.075C538.027 251.866 537.673 254.296 535.822 255.673C531.38 259.076 526.573 262.683 521.539 266.408L523.19 263.709C521.32 275.909 519.147 289.06 516.961 301.969L516.646 299.661C521.77 311.149 526.76 322.458 531.244 332.568C531.669 333.477 531.538 335.153 531.007 336.004C529.651 338.081 528.331 340.104 527.056 342.063L527.454 341.197C526.349 344.697 525.307 348.015 524.345 351.108C524.106 351.876 523.816 352.832 523.486 353.932L523.428 351.757C524.604 354.949 526.262 359.367 527.958 363.929L527.438 362.983C531.66 368.393 536.04 374.054 538.473 377.454L536.857 376.293C537.925 376.702 538.779 377.05 539.353 377.319C540.56 377.883 540.74 378.492 542.066 378.971C546.19 380.278 550.315 381.584 554.44 382.89L552.611 382.864C555.548 381.867 558.484 380.871 561.42 379.874C562.377 379.565 563.881 379.951 564.598 380.655C568.34 384.22 572.083 387.784 575.826 391.348C576.049 391.585 576.272 391.822 576.495 392.06L575.484 391.355C580.199 393.702 584.971 396.011 589.781 398.29L588.438 397.995C594.335 398.054 600.258 398.061 606.192 398.039L604.439 398.569C606.651 397.082 608.862 395.589 611.071 394.093C611.794 393.601 613.272 393.472 614.082 393.801C616.309 394.709 618.536 395.614 620.764 396.518L619.992 396.303C623.699 396.823 627.405 397.339 631.104 397.856L629.94 397.884C632.713 397.3 635.482 396.719 638.246 396.141L636.61 396.962C638.449 395.279 640.286 393.6 642.122 391.929C643.511 390.657 645.614 390.736 646.957 392.056C647.373 392.468 647.789 392.879 648.204 393.29C649.461 394.536 650.718 395.781 651.975 397.025L651.254 396.469C653.48 397.754 655.705 399.038 657.93 400.321L656.123 399.832C659.639 399.815 663.152 399.798 666.664 399.781L665.126 400.122C667.895 398.814 670.663 397.506 673.429 396.198C674.474 395.699 676.263 395.903 677.195 396.589C677.938 397.14 678.68 397.691 679.422 398.243C679.433 398.25 679.464 398.274 679.474 398.282C680.339 398.947 681.229 399.614 682.107 400.252C682.546 400.569 682.986 400.883 683.404 401.168C683.612 401.309 683.819 401.446 683.991 401.553C684.073 401.604 684.155 401.652 684.183 401.667C684.195 401.674 684.196 401.672 684.135 401.642C684.094 401.623 684.055 401.603 683.923 401.554C683.852 401.529 683.762 401.498 683.632 401.464C683.464 401.424 683.207 401.358 682.753 401.354C688.485 401.326 694.226 401.299 699.952 401.272L698.635 401.507C702.144 400.196 705.652 398.885 709.158 397.575L706.852 399.913C707.948 396.763 709.043 393.615 710.139 390.467C711.297 387.112 714.873 386.614 716.98 389.47C718.469 391.498 719.957 393.526 721.445 395.554L719.571 394.157C722.72 395.254 725.869 396.351 729.016 397.448L726.727 397.34C728.945 396.776 731.162 396.213 733.378 395.65L731.891 396.374C733.551 395.073 735.211 393.773 736.871 392.473C737.896 391.661 739.879 391.462 741.066 392.012C744.587 393.665 748.106 395.318 751.623 396.971L748.938 396.691C757.447 394.629 765.949 392.573 774.444 390.524L774.384 390.539C783.821 388.114 793.249 385.699 802.67 383.294L801.805 383.621C810.504 379.175 819.198 374.742 827.889 370.322L827.149 370.805C827.682 370.371 828.214 369.937 828.747 369.503C835.693 363.841 843.768 357.018 851.442 350.689L850.72 351.442C853.674 347.472 856.56 343.645 859.245 340.203C862.618 335.879 864.653 334.549 868.479 328.416C868.704 328.489 868.928 328.563 869.152 328.637C869.958 327.461 870.683 326.371 871.373 325.322L874.622 330.861C870.418 331.694 866.855 332.49 861.458 333.257C858.142 333.728 851.743 334.61 845.861 335.4C845.57 335.442 844.761 335.409 844.473 335.352C839.985 334.427 835.806 333.552 833.576 333.055C830.92 332.464 831.997 332.259 829.513 331.75C828.489 331.541 827.178 331.306 825.695 331.054C825.675 331.05 825.614 331.036 825.593 331.031C820.943 330.105 814.596 328.954 810.169 327.912C809.108 327.663 807.906 327.36 806.628 327.028C806.28 326.949 805.414 326.544 805.124 326.336C800.956 323.14 795.872 319.058 793.147 317.135C792.397 316.606 791.643 316.076 790.883 315.543C790.384 315.185 789.614 314.054 789.444 313.463C787.519 307.027 785.457 300.378 783.411 293.625C783.239 293.026 783.302 291.582 783.506 290.993C785.997 283.474 788.58 275.86 791.344 268.403C791.439 268.147 791.537 267.887 791.639 267.624C791.918 266.821 793.091 265.501 793.844 265.105C797.693 263.238 802.435 261.331 803.584 260.723C805.975 259.456 806.451 258.619 808.036 257.727C809.277 257.028 810.638 256.293 812.081 255.536L809.587 258.972C810.565 252.636 812.014 245.058 813.215 238.493L813.328 240.41C812.655 237.86 812.014 235.47 811.425 233.384C810.987 231.837 810.547 230.285 810.105 228.729L812.493 231.477C807.545 229.268 802.545 227.046 797.515 224.817C794.016 223.292 793.717 219.456 796.877 217.315C799.641 215.468 802.414 213.614 805.191 211.755L803.379 214.382C804.844 207.917 806.309 201.428 807.774 194.954L808.439 198.404C806.767 196 805.097 193.599 803.432 191.202L806.379 193.037C802.667 192.487 798.965 191.936 795.281 191.385C792.393 190.977 790.872 188.436 791.771 185.661C792.512 183.435 793.252 181.215 793.991 179.004L793.766 180.39C793.768 176.386 793.775 172.407 793.788 168.461C793.79 168.007 793.791 167.544 793.793 167.075L794.485 169.432C792.951 167.032 791.275 164.416 789.506 161.656L790.845 162.982C786.155 160.021 781.047 156.8 775.877 153.531C774.507 152.685 773.641 150.612 773.943 149.03C774.691 145.33 775.447 141.601 776.195 137.94L776.283 139.981C774.957 135.363 773.67 130.851 772.486 126.64C772.477 126.609 772.452 126.515 772.444 126.483C771.885 124.155 771.355 121.918 770.86 119.806L772.764 122.353C770.895 121.215 769.142 120.14 767.535 119.144C764.794 117.445 765.315 117.231 763.713 116.158L766.09 116.554C765.812 116.594 765.489 116.651 765.104 116.729C761.735 117.417 759.988 118.171 758.42 118.523C753.707 119.583 746.519 121.181 739.045 122.79C735.604 123.519 733.291 120.869 734.378 117.523C735.092 115.301 735.819 113.055 736.54 110.847L736.329 112.151C736.295 106.666 736.298 101.392 736.368 97.1712L736.757 98.9103C736.092 97.4344 735.501 96.0946 735.008 94.9334C734.225 93.091 734.016 91.5858 733.505 90.5028C733.377 90.2316 733.102 89.8235 732.754 89.2735L734.352 90.9356C733.729 90.7039 732.957 90.4 732.096 89.9704C727.903 87.8775 724.04 85.9163 720.333 84.0092L722.144 84.4518C715.325 84.4813 708.945 84.4461 702.171 84.397C700.733 84.4095 699.087 83.2542 698.559 81.9165C697.676 79.5694 696.775 77.1712 695.839 74.6835L697.436 76.5838C696.147 75.7974 694.831 74.9953 693.482 74.1738C692.959 73.856 692.436 73.5375 691.91 73.2183L692.483 73.4992C689.213 72.2072 685.884 70.9021 682.508 69.5861L685.018 69.6572C677.786 72.0009 670.363 74.4387 662.842 76.918C661.462 77.3797 659.566 76.7705 658.668 75.6249C656.817 73.2391 654.956 70.842 653.088 68.4376L653.859 69.1908C651.083 67.1749 648.297 65.1522 645.509 63.1261L647.801 63.8766C643.363 63.8958 638.919 63.9127 634.486 63.9237L636.365 63.4446C630.224 66.8142 624.102 70.1567 618.054 73.426C616.967 74.0314 615.046 73.9277 614.005 73.2464C611.777 71.7493 609.565 70.257 607.372 68.7713L609.185 69.4074C607.948 69.2906 606.716 69.1731 605.488 69.0547C601.801 68.6993 598.728 68.1789 596.473 67.7458L598.407 67.3208C596.415 68.2011 595.073 68.7268 594.646 68.9757C593.293 69.7635 592.427 70.605 590.697 71.8578L592.366 69.5192C592.293 70.4185 592.176 71.4827 591.969 72.8067C591.549 75.4801 591.062 78.3129 590.531 81.243C590.215 82.9826 588.542 84.3364 586.774 84.3518C583.364 84.3823 579.817 84.3807 576.233 84.365L577.378 84.1903C571.396 86.0309 565.292 87.8653 559.591 89.6308L561.283 88.5283C558.523 91.6664 555.914 94.6724 553.599 97.4332C553.592 97.4418 553.585 97.4504 553.577 97.459L554.5 95.3309C554.24 98.6433 554.057 102.549 553.882 106.476L553.478 104.182C555.604 108.04 557.753 111.916 559.42 115.174C559.932 116.173 560.561 117.459 561.252 118.891C563.042 122.534 560.874 125.919 556.815 125.951C555.423 125.952 553.91 125.946 552.377 125.938C547.014 125.913 541.406 125.877 539.884 126.085C539.113 126.189 538.556 126.413 537.952 126.616L539.517 126.392C539.026 126.734 538.49 127.07 537.67 127.351ZM662.088 68.8392C661.47 70.1326 671.066 66.1058 667.194 66.7777C666.321 66.9291 662.247 68.5038 662.088 68.8392ZM874.69 330.573C874.984 330.676 875.279 330.778 875.573 330.88C875.912 330.331 876.25 329.783 876.589 329.234C878.42 326.822 876.756 324.012 873.752 324.399C873.048 324.56 872.343 324.72 871.639 324.881C872.374 324.951 873.11 325.022 873.845 325.092C876.158 324.794 877.439 326.957 876.029 328.815C875.994 328.845 875.958 328.875 875.922 328.905C875.511 329.461 875.1 330.017 874.69 330.573Z" fill="#010C13"/>
<path d="M610.776 177.82C610.675 177.971 610.266 177.771 610.089 177.861C609.346 178.233 608.943 178.171 608.232 178.448C607.178 178.856 604.693 181.067 603.228 178.795C603.228 178.794 603.228 178.794 603.228 178.794C603.214 178.772 603.2 178.749 603.185 178.726C602.916 178.287 602.846 177.663 602.566 177.151C602.285 176.639 600.221 173.494 600.441 173.101C600.773 172.555 602.457 172.617 602.692 172.415C602.852 172.277 602.884 171.849 603.077 171.653C603.698 171.019 604.215 170.984 604.367 169.781C604.894 170.024 605.422 170.266 605.949 170.509C606.168 170.097 607.036 170.306 607.225 170.142C607.379 170.008 607.27 169.618 607.437 169.488C607.625 169.341 608.157 169.495 608.485 169.209C609.025 168.741 608.584 167.824 608.871 167.486C609.169 167.136 610.041 167.227 610.32 166.624C610.32 166.564 610.319 166.505 610.319 166.445C610.322 166.37 610.326 166.296 610.33 166.222C610.191 166.084 610.051 165.947 609.91 165.81C609.867 165.766 609.825 165.722 609.782 165.678C609.79 165.667 609.798 165.657 609.806 165.649C610.024 165.436 610.394 165.76 610.639 165.619C610.94 165.447 610.843 164.937 611.05 164.818C611.22 164.721 611.642 164.929 611.847 164.786C612.148 164.579 611.807 164.123 611.931 163.935C611.975 163.855 613.151 162.9 613.231 162.865C613.798 162.567 614.176 163.246 614.656 163.104C615.984 162.713 617.083 161.633 618.263 161.014C618.785 160.739 619.386 160.612 619.976 160.585C619.64 162.72 621.871 163.733 620.42 160.907C621.138 161.182 621.388 160.268 622.018 160.283C622.422 160.296 622.766 160.667 623.307 160.564C624.253 160.378 625.22 159.041 625.72 161.211C626.812 160.709 627.807 161.472 628.165 159.513C628.47 159.383 629.248 160.535 629.567 160.698C629.885 160.829 632.201 161.475 632.566 161.562C632.943 161.626 633.598 161.737 633.94 161.613C634.355 161.458 634.994 159.508 635.306 161.962C636.16 161.925 636.448 162.056 637.137 162.499C637.261 162.58 637.194 162.924 637.272 162.944C637.433 162.983 637.771 162.801 638.07 162.848C638.562 162.928 638.621 163.717 638.884 162.619C639.253 162.53 639.626 162.447 640.001 162.369C640.046 162.612 640.088 162.855 640.128 163.098C640.37 162.929 640.615 162.762 640.862 162.597C640.129 164.065 641.603 163.578 641.557 162.564C642.052 163.108 642.523 163.663 642.97 164.226C642.542 165.098 642.875 165.256 643.342 165.083C643.744 164.915 644.255 164.464 644.407 164.006C644.466 164.034 644.525 164.063 644.584 164.092C644.9 164.779 645.547 164.634 646.045 165.227C646.542 165.82 646.407 165.956 646.244 166.82C646.414 166.844 646.584 166.869 646.754 166.893C648.516 165.131 646.685 168.744 648.779 167.734C648.594 169.266 649.975 169.052 650.864 168.971C650.967 168.961 651.088 168.703 651.233 168.673C651.587 168.603 652.113 169.249 652.474 168.403C652.598 168.753 652.721 169.102 652.845 169.452C653.069 169.398 653.293 169.344 653.518 169.289C653.553 169.279 653.588 169.268 653.622 169.258C653.741 168.996 653.859 168.735 653.978 168.473C653.911 169.52 654.62 169.413 654.802 169.737C654.839 169.803 654.703 170.176 654.837 170.345C654.994 170.544 655.416 170.578 655.619 170.781C655.862 170.402 656.101 170.021 656.335 169.637C656.829 169.555 656.621 170.702 656.856 170.87C656.898 170.903 657.775 171.071 657.828 171.056C658.259 170.965 658.394 169.997 659.407 170.443C659.588 170.521 659.674 170.888 659.847 170.936C660.157 171.028 661.216 170.417 661.381 169.715C661.611 170.659 662.654 170.41 662.919 170.687C663.001 170.773 662.973 171.344 663.245 171.486C663.468 171.602 664.074 171.177 664.353 171.26C664.653 171.352 664.755 171.832 664.894 171.868C665.025 171.901 665.147 171.515 665.323 171.516C665.869 171.527 666.394 172.13 666.843 172.116C667.495 172.095 667.955 170.9 668.391 170.336C668.524 170.394 668.68 170.622 668.813 170.606C669.51 170.527 670.247 170.446 670.994 170.351C672.154 170.19 673.335 170.064 674.442 169.965C675.334 169.885 677.825 170.929 676.693 168.523C676.897 168.013 679.314 168.553 679.735 168.477C680.155 168.4 680.386 167.873 680.712 167.795C681.66 167.567 682.408 167.72 683.459 167.143C683.579 167.127 683.931 167.054 684.052 167.054C684.095 167.037 684.139 167.02 684.184 167.001C684.492 166.869 684.787 166.292 684.976 166.283C685.203 166.273 685.49 166.784 685.786 166.794C686.491 166.813 687.779 166.531 688.457 166.568C688.581 166.576 688.662 167.039 688.85 167.17C689.578 167.683 690.338 167.571 690.081 166.093C691.024 166.867 691.769 166.029 692.575 165.916C694.28 165.678 697.428 165.77 698.868 165.021C699.776 164.549 699.698 163.884 701.13 164.346C701.448 164.449 701.768 164.596 702.153 164.718C703.057 165.004 703.96 166.172 704.504 164.631C705.506 164.937 706.257 164.6 707.082 165.812C707.142 165.5 707.202 165.188 707.261 164.876C707.38 164.859 707.498 164.841 707.617 164.824C707.678 165.112 707.739 165.4 707.8 165.687C708.659 165.696 709.642 164.412 710.364 164.361C710.723 164.335 711.252 164.336 711.849 164.357C713.495 164.375 715.553 164.7 716.453 165.03C717.129 165.274 717.218 164.658 717.508 165.967C717.666 165.89 717.824 165.814 717.984 165.739C718.105 165.468 718.228 165.197 718.354 164.927C719.25 165.005 720.233 165.587 721.058 165.734C722.552 165.98 725.031 165.83 726.345 166.838C726.674 167.087 726.924 167.797 727.273 167.925C727.78 168.114 728.267 167.271 728.93 167.535C730.093 167.988 731.576 170.013 732.557 170.521C732.856 170.671 733.176 170.449 733.395 170.541C734.313 170.925 734.955 171.4 736.05 171.521C736.317 172.874 735.495 173.757 734.98 174.878C734.732 175.413 734.313 176.425 733.908 177.254C733.677 177.74 733.46 178.17 733.299 178.417C732.991 178.886 732.347 179.284 732.023 179.813C731.953 179.794 731.888 179.774 731.826 179.752C730.989 179.507 731.029 178.877 730.917 177.793C729.738 176.987 728.5 176.274 727.216 175.663C727.252 175.305 727.284 174.947 727.311 174.587C727.311 174.586 727.311 174.585 727.312 174.585C726.967 173.987 726.381 174.672 726.033 174.731C722.789 175.214 718.018 172.659 714.754 172.557C714.336 172.527 713.342 172.715 712.542 172.783C711.987 172.828 711.507 172.804 711.294 172.614C711.148 172.483 711.069 171.971 710.925 171.961C709.678 172.372 708.432 172.782 707.185 173.193C704.505 172.608 701.856 173.491 699.231 173.831C694.378 174.46 689.561 175.119 684.756 175.618L685.301 175.537C683.126 176.063 680.949 176.556 678.765 176.995C677.431 177.262 675.829 178.011 674.475 178.052C673.91 178.07 673.506 177.309 672.926 178.07C672.871 177.853 672.815 177.636 672.76 177.419C672.696 177.465 672.635 177.513 672.577 177.563C672.07 177.959 671.712 178.443 671.013 178.609C670.351 178.776 668.56 179.026 667.953 178.975C667.639 178.956 667.724 178.531 667.438 178.553C666.953 178.594 665.916 179.213 665.221 179.21C664.591 179.214 663.563 178.697 663.089 178.735C661.382 178.882 659.381 179.336 657.59 178.748C657.095 178.586 656.589 177.901 656.435 177.876C656.128 177.829 655.902 178.312 655.679 178.321C654.54 178.369 653.136 177.238 652.188 176.827C651.596 176.577 651.002 176.319 650.407 176.048C648.16 175.026 645.797 174.088 643.637 173.007C642.76 172.569 641.559 172.027 640.41 171.455C639.502 170.996 638.606 170.57 637.983 170.157C637.702 169.972 637.965 169.452 637.698 169.365C637.402 169.27 637.127 169.595 636.982 169.585C635.963 169.49 633.798 169.429 632.936 168.93C632.773 168.83 632.701 168.366 632.593 168.354C632.539 168.348 632.38 168.639 632.209 168.652C630.698 168.773 629.638 168.558 628.165 168.501C625.318 168.398 622.225 169.596 619.407 170.372C618.791 170.538 618.029 169.898 617.944 169.945C617.763 170.044 617.888 170.644 617.586 170.949C616.769 171.768 615.384 172.121 614.404 172.784C614.158 172.948 613.933 173.121 613.742 173.309C613.222 173.821 612.811 174.994 612.311 175.517C611.913 175.934 610.636 176.4 610.609 176.817C610.591 177.069 610.885 177.653 610.776 177.82ZM623.964 160.967C624.006 162.008 625.047 160.994 624.538 160.5C624.42 160.387 623.951 160.695 623.964 160.967ZM671.385 171.996C671.312 171.708 671.239 171.42 671.166 171.132C671.166 171.133 671.166 171.133 671.165 171.133C671.071 171.28 670.975 171.426 670.878 171.572C670.983 171.733 671.089 171.893 671.196 172.053C671.25 172.037 671.303 172.021 671.357 172.004C671.366 172.002 671.376 171.999 671.385 171.996ZM622.693 255.637C622.557 255.765 622.193 255.486 621.996 255.538C621.168 255.752 620.778 255.61 620.004 255.737C618.856 255.925 615.864 257.593 614.915 255.062C614.915 255.062 614.915 255.062 614.915 255.062C614.906 255.037 614.897 255.012 614.888 254.986C614.718 254.5 614.79 253.872 614.626 253.312C614.461 252.751 613.11 249.24 613.419 248.899C613.877 248.43 615.548 248.833 615.829 248.682C616.021 248.578 616.15 248.165 616.388 248.011C617.154 247.514 617.679 247.585 618.105 246.433C618.578 246.778 619.051 247.124 619.523 247.469C619.836 247.11 620.658 247.491 620.884 247.368C621.069 247.268 621.048 246.862 621.246 246.769C621.467 246.662 621.965 246.922 622.359 246.707C623.005 246.356 622.772 245.365 623.136 245.091C623.514 244.808 624.367 245.074 624.783 244.539C624.812 244.409 624.841 244.28 624.87 244.15C624.733 243.933 624.596 243.716 624.46 243.499C624.691 243.287 624.989 243.726 625.243 243.64C625.542 243.54 625.521 243.027 625.72 242.955C625.884 242.896 626.242 243.18 626.444 243.078C626.739 242.931 626.473 242.427 626.602 242.266C626.653 242.203 627.764 241.453 627.831 241.423C628.346 241.206 628.663 241.913 629.105 241.82C630.327 241.559 631.296 240.528 632.283 239.905C632.724 239.627 633.239 239.482 633.759 239.419C633.703 241.554 635.906 242.374 634.197 239.706C634.882 239.92 634.964 238.996 635.517 238.94C635.874 238.904 636.25 239.222 636.711 239.037C637.527 238.707 637.999 237.226 639.011 239.203C639.842 238.476 640.96 238.912 640.625 236.957C640.732 236.851 641.064 237.026 641.405 237.226C641.758 237.4 642.112 237.602 642.291 237.62C642.644 237.63 645.108 237.427 645.493 237.383C645.881 237.313 646.554 237.19 646.844 236.956C647.193 236.668 647.146 234.614 648.289 236.816C649.106 236.489 649.43 236.515 650.25 236.698C650.399 236.731 650.451 237.079 650.534 237.07C650.704 237.053 650.971 236.767 651.276 236.712C651.781 236.62 652.11 237.344 651.989 236.221C652.317 236.013 652.65 235.81 652.989 235.612C653.115 235.826 653.24 236.04 653.362 236.256C653.539 236.016 653.719 235.777 653.903 235.54C653.693 237.167 654.959 236.218 654.567 235.278C655.234 235.626 655.882 235.994 656.509 236.379C656.281 238.214 657.893 236.719 657.9 235.712C657.976 235.722 658.052 235.732 658.128 235.743C658.729 236.312 659.39 235.999 660.133 236.468C660.864 236.94 660.752 237.108 660.812 237.99C661 237.979 661.19 237.971 661.379 237.964C662.879 235.92 661.719 239.779 663.76 238.509C663.819 239.697 664.639 239.769 665.466 239.708C665.71 239.683 665.952 239.64 666.166 239.607C666.271 239.591 666.372 239.324 666.518 239.284C666.874 239.191 667.468 239.803 667.764 238.931C667.921 239.274 668.078 239.616 668.235 239.958C668.498 239.877 668.76 239.796 669.022 239.715C669.121 239.446 669.22 239.176 669.319 238.907C669.39 239.977 670.167 239.864 670.404 240.202C670.451 240.27 670.326 240.646 670.486 240.821C670.672 241.027 671.142 241.076 671.373 241.294C671.633 240.922 671.892 240.551 672.152 240.179C672.725 240.138 672.495 241.288 672.752 241.48C672.798 241.513 673.774 241.787 673.834 241.783C674.103 241.767 674.293 241.462 674.601 241.304C674.646 241.325 674.786 241.374 674.829 241.398C675.085 241.287 675.412 241.277 675.897 241.598C676.09 241.727 676.119 242.115 676.303 242.212C676.627 242.385 677.952 242.132 678.324 241.516C678.362 242.515 679.597 242.669 679.81 243.048C679.874 243.164 679.662 243.694 679.908 243.938C680.108 244.137 680.914 243.999 681.187 244.205C681.476 244.427 681.395 244.916 681.526 245.012C681.65 245.102 681.935 244.806 682.121 244.892C682.697 245.166 682.969 245.971 683.425 246.189C684.083 246.505 685.141 245.725 685.907 245.512C686.014 245.642 686.049 245.927 686.193 245.995C687.971 246.834 689.907 247.937 691.605 248.97C691.902 249.15 692.292 249.597 692.689 249.943C693.271 250.483 693.898 250.717 694.189 249.095C694.589 248.788 696.099 250.427 696.49 250.538C696.856 250.661 697.27 250.291 697.557 250.357C698.423 250.552 698.99 251.018 700.131 250.787C700.305 250.75 700.506 250.558 700.672 250.412C700.806 250.314 700.922 250.238 701 250.251C701.231 250.291 701.41 250.852 701.706 250.926C702.412 251.097 703.77 251.102 704.445 251.285C704.568 251.319 704.55 251.789 704.711 251.958C705.334 252.617 706.123 252.673 706.182 251.173C706.966 252.133 707.896 251.477 708.733 251.541C710.5 251.679 713.651 252.451 715.263 252.032C716.035 251.832 716.257 251.398 716.91 251.536C717.076 251.575 717.274 251.667 717.537 251.835C717.781 251.99 718.023 252.186 718.33 252.362C719.034 252.776 719.755 254.032 720.336 252.538C721.184 252.92 721.822 252.609 722.573 253.825C722.623 253.513 722.671 253.202 722.716 252.89C722.819 252.873 722.922 252.855 723.024 252.836C723.088 253.123 723.152 253.409 723.218 253.696C723.545 253.693 723.882 253.454 724.196 253.169C724.705 252.767 725.195 252.29 725.623 252.231C726.625 252.092 728.949 252.054 730.451 252.157C730.746 252.191 731.005 252.224 731.205 252.264C731.767 252.369 731.652 251.751 732.236 252.937C732.335 252.823 732.433 252.708 732.529 252.592C732.536 252.301 732.539 252.01 732.539 251.719C733.177 251.546 734.071 251.723 734.682 251.491C735.817 251.076 737.024 249.632 738.26 249.454C738.575 249.412 739.206 249.696 739.451 249.522C739.806 249.268 739.335 248.425 739.74 248.1C740.432 247.566 742.468 247.245 743.03 246.505C743.195 246.294 743.014 245.961 743.105 245.802C743.483 245.134 743.9 244.663 743.872 243.768C745.061 243.698 746.011 244.401 747.157 244.853C748.019 245.199 750.16 245.746 750.897 246.058C751.413 246.285 751.877 246.901 752.455 247.133C752.182 248.495 751.39 248.673 750.091 248.965C748.977 250.485 747.709 251.897 746.313 253.173C745.962 253.035 745.615 252.892 745.271 252.744C745.271 252.743 745.27 252.743 745.27 252.742C744.49 252.894 744.8 253.744 744.609 254.139C742.953 257.866 735.771 259.852 731.615 259.917C731.377 259.931 731.149 259.948 730.932 259.968C730.156 260.039 727.718 260.861 727.109 260.402C726.951 260.282 726.836 259.777 726.688 259.777C726.216 259.964 725.744 260.152 725.272 260.34C724.412 260.663 723.532 260.952 722.634 261.207C720.307 260.755 718.017 260.928 715.672 260.822C715.021 260.798 714.371 260.772 713.73 260.716C708.946 260.298 704.189 259.915 699.474 259.4C696.612 259.08 693.794 258.366 691.144 257.268C690.682 257.077 690.171 256.898 689.646 256.706C688.633 256.349 687.549 256.002 686.762 255.46C686.283 255.13 686.406 254.276 685.466 254.531C685.551 254.324 685.635 254.117 685.72 253.91C685.011 253.887 684.419 254.179 683.727 253.924C683.145 253.709 681.636 253.066 681.172 252.764C680.93 252.608 681.198 252.27 680.956 252.164C680.54 251.984 679.42 252.113 678.849 251.857C678.333 251.624 677.659 250.793 677.233 250.678C675.701 250.26 673.85 250.209 672.404 249.349C672.091 249.161 671.826 248.666 671.66 248.44L671.912 248.543C671.863 248.484 671.822 248.446 671.792 248.438C671.516 248.369 671.254 248.833 671.053 248.83C670.03 248.815 668.84 247.706 667.962 247.354C666.445 246.744 664.849 246.199 663.26 245.648C662.051 245.233 660.823 244.904 659.625 244.598C658.008 244.152 655.255 243.976 653.697 243.627C653.361 243.546 653.439 242.968 653.149 242.975C652.828 242.985 652.673 243.383 652.528 243.422C651.505 243.673 649.381 244.353 648.375 244.182C648.182 244.144 647.953 243.732 647.845 243.759C647.79 243.771 647.735 244.1 647.574 244.171C646.418 244.685 645.486 244.9 644.398 245.206C644.107 245.291 643.807 245.379 643.492 245.476C640.34 246.444 636.97 248.321 633.623 249.244C632.893 249.446 632.096 248.79 632 248.836C631.788 248.934 631.86 249.549 631.471 249.854C630.177 250.861 627.977 251 626.688 251.805C626.052 252.203 625.373 253.272 624.754 253.685C624.26 254.014 622.876 254.213 622.754 254.617C622.679 254.861 622.84 255.495 622.693 255.637ZM637.381 239.322C637.65 240.331 638.36 239.142 637.784 238.762C637.654 238.677 637.312 239.06 637.381 239.322ZM687.846 248.734C687.959 248.459 688.071 248.185 688.184 247.91C688.004 247.964 687.823 248.019 687.643 248.073C687.643 248.268 687.642 248.464 687.642 248.659C687.71 248.684 687.778 248.709 687.846 248.734ZM620.852 318.837C620.717 318.88 620.636 318.462 620.5 318.41C619.931 318.188 619.773 317.875 619.275 317.604C618.536 317.202 616.079 317.165 616.682 314.53C616.682 314.53 616.682 314.53 616.682 314.53C616.688 314.504 616.694 314.478 616.7 314.451C616.823 313.951 617.148 313.449 617.307 312.888C617.467 312.326 618.283 308.654 618.613 308.513C619.085 308.335 619.855 309.5 620.083 309.509C620.239 309.514 620.5 309.223 620.705 309.207C621.365 309.158 621.632 309.475 622.395 308.697C622.508 309.225 622.622 309.753 622.735 310.281C623.076 310.126 623.371 310.856 623.555 310.861C623.707 310.866 623.878 310.508 624.032 310.525C624.206 310.542 624.373 311.008 624.694 311.017C625.221 311.034 625.535 310.07 625.866 310.014C626.209 309.956 626.575 310.603 627.054 310.348C627.129 310.251 627.204 310.154 627.279 310.057C627.299 309.804 627.319 309.551 627.339 309.298C627.567 309.23 627.538 309.752 627.722 309.803C627.937 309.864 628.157 309.413 628.303 309.449C628.423 309.479 628.498 309.897 628.659 309.909C628.894 309.928 628.97 309.366 629.116 309.291C629.174 309.262 630.145 309.164 630.196 309.171C630.582 309.237 630.454 309.974 630.728 310.129C630.732 310.131 630.736 310.133 630.74 310.135C631.432 310.483 632.305 310.006 632.996 309.864C633.308 309.802 633.609 309.884 633.894 310.039C633.185 311.955 634.145 313.603 634.033 310.478C634.332 310.95 634.643 310.136 634.947 310.297C635.145 310.402 635.267 310.839 635.568 310.84C636.113 310.84 636.667 309.618 636.841 311.823C637.473 311.429 638.08 312.197 638.186 310.239C638.331 310.112 638.825 311.238 639.029 311.377C639.209 311.519 640.625 311.876 640.857 311.86C641.084 311.855 641.479 311.82 641.634 311.617C641.839 311.363 641.574 309.358 642.47 311.582C642.661 311.456 642.803 311.388 642.944 311.366C643.151 311.33 643.355 311.374 643.674 311.459C643.776 311.486 643.866 311.825 643.919 311.813C644.028 311.787 644.153 311.491 644.34 311.415C644.648 311.289 644.999 311.965 644.705 310.876C644.872 310.643 645.04 310.409 645.207 310.176C645.33 310.37 645.454 310.564 645.578 310.759C645.636 310.502 645.694 310.244 645.752 309.987C645.994 311.606 646.565 310.483 646.094 309.632C646.579 309.865 647.064 310.097 647.549 310.329C647.917 312.147 648.494 310.327 648.183 309.365C648.23 309.355 648.277 309.346 648.324 309.336C648.846 309.719 649.129 309.239 649.703 309.444C650.277 309.648 650.271 309.835 650.618 310.629C650.724 310.554 650.83 310.479 650.936 310.404C650.971 309.34 651.149 309.51 651.391 309.865C651.724 310.314 652.127 311.068 652.564 309.954C653.216 311.319 653.932 310.407 654.481 309.882C654.544 309.821 654.505 309.538 654.588 309.438C654.792 309.195 655.426 309.489 655.303 308.578C655.542 308.819 655.777 309.062 656.006 309.308C656.158 309.126 656.312 308.945 656.469 308.764C656.446 308.478 656.422 308.192 656.399 307.906C656.823 308.853 657.332 308.446 657.613 308.668C657.668 308.713 657.697 309.108 657.863 309.21C658.057 309.33 658.406 309.203 658.633 309.323C658.714 308.883 658.798 308.443 658.885 308.004C658.999 307.938 659.094 307.977 659.175 308.071C659.367 308.319 659.479 308.947 659.638 309.013C659.677 309.028 660.394 308.945 660.432 308.92C660.749 308.725 660.659 307.738 661.574 307.949C661.736 307.988 661.868 308.329 662.015 308.343C662.275 308.367 663.059 307.593 663.121 306.878C663.436 307.773 664.28 307.407 664.528 307.666C664.604 307.745 664.62 308.316 664.851 308.437C665.038 308.536 665.519 308.079 665.757 308.156C666.008 308.239 666.098 308.718 666.211 308.752C666.317 308.784 666.416 308.397 666.561 308.399C667.014 308.412 667.424 309.035 667.782 309.046C668.3 309.064 668.758 307.919 669.191 307.411C669.299 307.485 669.405 307.731 669.518 307.733C670.913 307.769 672.487 307.98 673.886 308.225C674.056 308.255 674.291 308.382 674.538 308.509C675.315 308.864 676.17 309.255 675.894 307.325C676.182 306.868 677.99 308.045 678.322 308.111C678.669 308.164 679.004 307.738 679.284 307.768C680.129 307.865 680.65 308.288 681.738 308.096C682.019 308.045 682.42 307.57 682.577 307.612C682.764 307.664 682.844 308.23 683.074 308.322C683.626 308.532 684.73 308.661 685.242 308.923C685.329 308.967 685.242 309.366 685.304 309.569C685.308 309.584 685.313 309.598 685.318 309.61C685.619 310.307 686.167 310.432 686.532 308.98C686.881 309.984 687.683 309.43 688.263 309.568C689.028 309.751 690.122 310.223 691.137 310.488C691.653 310.617 692.151 310.656 692.542 310.516C693.2 310.276 693.322 309.623 694.005 310.361C694.158 310.524 694.305 310.73 694.501 310.921C694.946 311.37 695.292 312.673 695.894 311.246C696.441 311.705 696.928 311.473 697.296 312.777C697.371 312.476 697.445 312.174 697.517 311.872C697.591 311.869 697.665 311.866 697.74 311.863C697.747 312.155 697.755 312.448 697.763 312.74C698.317 312.849 699.021 311.661 699.455 311.663C700.193 311.688 702.148 312.005 702.934 312.273C703.104 312.335 703.193 312.267 703.266 312.25C703.387 312.223 703.471 312.305 703.735 313.031C703.82 312.927 703.905 312.824 703.991 312.72C704.01 312.433 704.029 312.145 704.048 311.858C704.613 311.759 705.351 312.088 705.89 312C706.873 311.84 708.232 310.848 709.297 311.198C709.565 311.287 709.962 311.812 710.204 311.769C710.556 311.705 710.495 310.741 710.94 310.654C711.708 310.506 713.316 311.39 714.033 311.194C714.246 311.136 714.292 310.766 714.436 310.705C715.039 310.447 715.559 310.396 716.076 309.757C716.863 310.569 716.988 311.754 717.371 312.911C717.661 313.783 718.445 315.789 718.632 316.563C718.763 317.108 718.699 317.844 718.858 318.44C718.158 319.044 717.751 318.561 716.991 317.804C715.835 318.016 714.679 318.229 713.524 318.441C713.367 318.126 713.211 317.811 713.054 317.496C713.054 317.496 713.054 317.495 713.054 317.494C712.549 317.18 712.491 318.063 712.281 318.293C710.612 320.121 707.069 319.92 704.442 319.898C703.832 319.903 703.268 319.899 702.776 319.914C702.171 319.95 700.183 320.513 699.749 319.961C699.638 319.821 699.602 319.305 699.489 319.283C698.48 319.6 697.443 319.872 696.383 320.095C694.34 319.126 692.127 319.41 689.995 318.953C689.501 318.847 689.009 318.731 688.519 318.605C686.623 318.128 684.732 317.655 682.857 317.158C680.486 316.549 678.093 316.213 675.693 316.043C675.337 316.018 674.938 316.068 674.538 316.125C673.882 316.205 673.212 316.277 672.642 316.131C672.236 316.028 672.067 315.198 671.533 315.816C671.527 315.593 671.522 315.369 671.516 315.145C671.05 315.415 670.753 315.924 670.231 315.976C669.791 316.019 668.628 316.052 668.239 315.966C668.038 315.924 668.113 315.506 667.925 315.508C667.603 315.515 666.916 316.092 666.472 316.092C666.07 316.092 665.392 315.611 665.083 315.681C663.97 315.928 662.757 316.642 661.57 316.451C661.243 316.396 660.821 315.855 660.719 315.87C660.518 315.901 660.458 316.428 660.324 316.495C659.999 316.657 659.588 316.602 659.175 316.496C658.786 316.379 658.384 316.21 658.08 316.209C656.411 316.204 654.691 316.611 653.063 316.97C652.812 317.025 652.561 317.077 652.311 317.124C650.959 317.38 648.757 317.993 647.432 317.899C647.146 317.878 647.085 317.3 646.861 317.353C646.613 317.411 646.568 317.822 646.459 317.88C646.045 318.102 645.348 318.445 644.663 318.673C644.032 318.877 643.403 318.983 642.984 318.878C642.805 318.833 642.608 318.409 642.511 318.428C642.463 318.436 642.403 318.76 642.252 318.816C640.914 319.314 639.86 319.246 638.492 319.219C635.89 319.172 632.785 319.556 630.11 318.724C629.527 318.545 629.321 317.582 629.241 317.573C629.168 317.565 629.084 317.652 628.983 317.763C628.846 317.927 628.676 318.142 628.463 318.184C627.271 318.412 625.955 317.453 624.858 317.511C624.316 317.54 623.446 318.124 622.908 318.174C622.477 318.214 621.599 317.706 621.347 317.992C621.194 318.165 620.999 318.787 620.852 318.837ZM635.873 311.353C635.782 312.391 636.478 311.539 636.231 310.977C636.178 310.852 635.898 311.084 635.873 311.353ZM671.385 309.553C671.378 309.256 671.371 308.96 671.364 308.663C671.263 308.786 671.162 308.91 671.061 309.033C671.118 309.212 671.174 309.39 671.231 309.569C671.282 309.564 671.334 309.558 671.385 309.553Z" fill="#010C13"/>
<path d="M295.594 360.933C272.526 374.233 198.002 375.699 198 386.922C197.998 398.145 277.848 401.098 277.848 401.098C277.848 401.098 339.953 402.789 368.343 395.192C396.734 387.595 421.577 368.611 421.577 368.611L435.181 396.373L450.559 420L465.346 380.425L482.498 347.938L504.974 364.477L525.676 386.922V371.565L538.097 346.166L545.194 325.492L598.426 316.041L628 312.497L598.426 297.731L555.249 288.87L558.798 279.42L596.652 264.653L617.354 254.611L603.158 248.705L568.262 245.751L590.737 219.171L623.86 186.093L556.432 196.725V186.093L558.798 166.01L565.304 144.746L522.127 158.922V145.927L524.493 128.207L517.395 114.031L492.553 125.845L467.12 151.244L464.163 134.114L467.12 120.528C470.275 106.352 477.057 78 478.95 78H470.669L436.955 105.171L420.985 134.114L400.284 166.01L399.101 158.922L393.778 134.114L384.314 97.4922L376.625 114.031L361.838 144.746L352.375 173.098L342.32 166.01L316.887 148.29L296.777 134.114L315.112 166.01L325.759 199.088L335.222 217.399L323.984 228.031L305.649 232.166L325.759 251.067L330.49 254.611L323.984 263.471L300.917 271.15L276.667 274.694L310.972 294.777L318.661 318.404L320.434 330.808C320.434 330.808 318.661 347.633 295.594 360.933Z" fill="#38BDF8"/>
<path d="M293.947 368.425C291.524 369.562 287.968 370.392 285.145 371.209C273.272 374.471 268.88 374.833 258.248 376.626C242.888 378.613 194.587 387.945 200.722 386.923C200.722 386.923 200.722 386.923 200.721 386.923C200.695 386.923 200.668 386.923 200.641 386.923C200.514 386.923 200.373 386.935 200.26 386.836C200.151 386.734 200.09 386.501 200.233 386.127C200.447 385.438 201.232 384.599 201.322 384.216C201.532 383.533 199.255 379.966 205.053 377.715C213.378 374.57 233.011 372.636 237.344 371.866C240.287 371.366 243.884 370.452 247.641 369.781C259.737 367.583 266.164 366.775 276.521 363.316C280.846 362.732 285.139 362.006 289.251 360.891C290.797 360.196 292.585 359.405 294.206 358.526C298.282 356.341 302.297 353.69 304.066 352.123C306.152 350.287 307.054 348.891 308.948 346.772C311.022 344.401 314.491 340.714 316.573 335.354C317.319 333.425 317.722 331.592 317.774 330.528L317.786 331.187C316.7 325.882 315.776 323.86 315.015 319.238C314.998 319.137 314.982 319.035 314.965 318.932L315.111 319.559C313.064 313.622 310.603 304.362 307.834 296.985C307.679 296.64 307.523 296.295 307.367 295.951L309.056 298.049C308.48 297.792 307.903 297.535 307.326 297.278C307.757 297.784 308.188 298.29 308.619 298.797L306.543 296.219C306.541 296.315 306.539 296.412 306.537 296.509C306.505 296.422 306.475 296.336 306.445 296.25L308.567 298.886C305.212 297.022 303.961 295.72 300.843 293.884C297.087 291.672 294.922 290.97 292.393 289.487C290.321 288.271 287.708 286.288 285.007 284.736C281.071 282.471 281.643 283.46 279.481 282.317C279.164 282.149 276.848 280.852 273.998 279.253C269.222 276.437 270.414 270.252 275.903 269.467C281.464 268.551 288.827 267.348 289.463 267.252C295.192 266.398 297.067 266.558 300.215 266.346L299.383 266.543C300.41 266.288 301.57 265.967 303.045 265.494C309.529 263.413 316.041 261.187 322.473 258.932L320.128 260.64C322.266 257.631 324.38 254.628 326.466 251.656L327.497 258.608C325.884 257.452 324.28 256.304 322.689 255.166C322.597 255.096 322.335 254.878 322.252 254.799C318.939 251.817 315.69 248.889 312.552 246.026C309.03 242.814 305.454 239.456 301.949 236.102C298.405 232.738 299.689 227.947 304.46 226.896C306.747 226.402 309.024 225.921 311.269 225.456C300.881 229.828 325.174 225.929 315.534 224.928C318.241 224.475 320.641 223.932 322.929 223.353L320.688 224.547C323.799 221.446 326.514 218.435 330.088 215.181C330.654 214.665 331.199 214.181 331.735 213.713L330.715 219.728C329.127 216.327 327.894 213.284 325.237 208.163C324.043 205.864 322.778 203.543 321.528 201.275C321.455 201.132 321.273 200.7 321.225 200.547C318.049 191.508 314.972 183.212 315.781 180.055C314.183 175.518 312.78 171.145 311.49 167.176L311.813 167.907C307.691 160.782 304.33 155.099 301.505 152.78C299.565 149.644 295.863 140.876 293.94 137.214C293.805 136.958 293.602 136.577 293.339 136.09C291.101 132.184 295.386 128.273 299.061 130.873C302.427 133.382 311.466 140.01 318.898 145.437L318.882 145.426C323.746 148.938 327.925 151.943 329.39 152.977C333.4 155.806 340.431 160.743 343.92 162.966C344.041 163.043 344.162 163.119 344.283 163.193C344.286 163.195 344.295 163.201 344.298 163.204C347.58 165.234 350.763 166.058 354.834 169.61L348.326 171.747C348.974 170.319 349.821 168.752 350.951 166.997C354.171 156.748 355.448 153.135 358.868 143.755C358.893 143.679 358.981 143.459 359.017 143.388C359.02 143.381 359.023 143.374 359.027 143.367C359.857 141.758 360.262 141.726 360.72 140.773C361.665 138.811 363.039 135.359 364.698 131.842C367.424 126.058 369.672 123.09 368.348 123.244C369.907 119.595 371.466 115.947 373.025 112.298L373.002 112.347C373.098 112.114 373.194 111.881 373.29 111.648C374.111 110.398 374.931 109.149 375.752 107.9C376.487 105.756 377.222 103.612 377.958 101.469C378.166 103.245 380.18 99.1036 381.277 96.0803C382.762 92.9145 386.693 93.2662 387.557 96.6543C388.348 98.8921 389.138 100.342 388.976 98.1254C390.694 106.122 392.412 114.118 394.13 122.114C392.833 121.715 394.816 128.583 396.633 133.376C396.639 133.4 396.656 133.471 396.661 133.495C397.639 136.436 398.587 138.616 398.831 137.945C399.026 138.86 399.22 139.774 399.415 140.689C400.303 146.511 401.569 151.9 402.869 158.114C402.876 158.149 402.896 158.253 402.902 158.288C403.264 160.532 403.626 162.882 403.968 165.396L397.151 163.977C397.289 163.777 397.429 163.576 397.57 163.374C403.279 155.185 402.92 156.069 405.287 153.988C406.524 151.992 407.762 149.996 408.999 148C412.418 139.64 414.52 139.392 419.159 132.929L419.079 133.062C420.697 130.431 422.629 126.837 425.04 121.429C427.828 118.243 431.673 111.392 435.369 104.296C435.442 104.164 435.701 103.854 435.818 103.76C439.662 100.506 443.487 97.1401 446.692 94.3358C447.658 93.4912 447.496 93.2554 448.77 92.1156C451.887 89.3318 460.41 82.9337 459.55 82.4461C462.587 80.3397 465.625 78.2333 468.663 76.1269C468.758 76.0405 468.854 75.954 468.95 75.8675C469.299 75.5902 470.224 75.2585 470.669 75.2612C472.111 75.1811 473.553 75.1011 474.996 75.021C475.718 74.981 476.441 74.941 477.16 74.901C477.523 74.881 477.883 74.8609 478.244 74.8409C478.418 74.8309 478.61 74.8209 478.782 74.8109C478.881 74.8059 478.963 74.8009 479.056 74.7959C479.092 74.7934 479.154 74.7909 479.188 74.7884C479.214 74.7872 479.24 74.7859 479.256 74.7847C479.262 74.7843 479.273 74.784 479.277 74.7837C479.28 74.7836 479.281 74.7834 479.282 74.7833C479.282 74.7832 479.283 74.7832 479.283 74.7831C479.283 74.7831 479.283 74.7831 479.283 74.7831C479.283 74.7831 479.283 74.7831 479.283 74.783C479.283 74.783 479.283 74.783 479.283 74.783C479.283 74.783 479.283 74.783 479.283 74.783C479.283 74.783 479.283 74.783 479.283 74.783C479.283 74.783 479.283 74.783 479.283 74.783C479.283 74.783 479.283 74.783 479.283 74.783C479.283 74.783 479.283 74.783 479.283 74.783C479.283 74.783 479.283 74.783 479.283 74.783C479.283 76.9277 479.283 67.6342 479.283 81.217C479.283 81.217 479.283 81.217 479.283 81.217C479.283 81.217 479.283 81.217 479.283 81.217C479.283 81.217 479.283 81.217 479.283 81.217C479.283 81.217 479.283 81.217 479.283 81.217C479.283 81.217 479.283 81.217 479.283 81.217C479.283 81.217 479.283 81.217 479.283 81.217C479.283 81.2171 479.282 81.2171 479.281 81.2172C479.261 81.2178 479.26 81.2185 479.248 81.2191C479.255 81.3626 479.261 81.5062 479.266 81.6498C479.27 81.7215 479.28 81.7933 479.282 81.8651C479.282 81.883 479.283 81.901 479.283 81.9189C479.283 81.9234 479.283 81.9279 479.283 81.9324C479.283 81.9335 479.283 81.9346 479.283 81.9357C479.283 81.9363 479.283 81.9369 479.283 81.9374C479.283 81.9377 479.283 81.938 479.283 81.9383C479.283 81.9384 479.283 81.9386 479.283 81.9387C479.283 81.9388 479.283 81.9388 479.283 81.9389C479.283 81.9389 479.283 81.939 479.283 81.939C479.283 81.939 479.283 81.939 479.283 81.9391C479.283 81.9391 479.283 81.9391 479.283 81.9391C479.283 81.9391 479.283 81.9391 479.283 81.9391C479.283 81.9391 479.283 81.9391 479.283 81.9391C479.283 81.9391 479.283 81.9391 479.283 81.9391C479.283 81.9391 479.283 81.9391 479.283 81.9391C479.283 81.9391 479.283 81.9391 479.283 81.9391C479.283 81.9391 479.283 81.9391 479.283 81.9391C479.283 81.9391 479.283 81.9391 479.283 81.9391C479.283 81.9391 479.283 81.9391 479.283 81.9391C479.283 81.9391 479.283 81.9391 479.283 81.9391C479.283 86.3159 479.283 69.6841 479.283 74.0609C479.283 74.0609 479.283 74.0609 479.283 74.0609C479.283 74.0609 479.283 74.0609 479.283 74.0609C479.283 74.0609 479.283 74.0609 479.283 74.0609C479.283 74.0586 479.283 74.0564 479.283 74.0542C479.283 74.0452 479.283 74.0362 479.283 74.0272C479.282 73.9914 479.282 73.9555 479.281 73.9196C479.282 73.9199 479.282 73.9201 479.283 73.9204C479.283 73.9205 479.283 73.9206 479.283 73.9206C479.283 73.9207 479.283 73.9207 479.283 73.9207C479.283 73.9207 479.283 73.9208 479.283 73.9208C479.283 73.9208 479.283 73.9208 479.283 73.9208C479.283 73.9208 479.283 73.9208 479.283 73.9208C479.283 73.9208 479.283 73.9208 479.283 73.9208C479.283 73.9208 479.283 73.9208 479.283 73.9208C479.283 73.9208 479.283 73.9208 479.283 73.9208C479.283 73.9208 479.283 73.9208 479.283 73.9208C479.283 73.9208 479.283 73.9208 479.283 73.9208C479.283 73.9208 479.283 73.9208 479.283 73.9208C479.283 73.9208 479.283 73.9208 479.283 73.9208C479.283 69.3883 479.283 86.6117 479.283 82.0792C479.283 82.0792 479.283 82.0792 479.283 82.0792C479.283 82.0792 479.283 82.0792 479.283 82.0792C479.283 82.0792 479.283 82.0792 479.283 82.0792C479.283 82.0792 479.283 82.0792 479.283 82.0792C479.283 82.0792 479.283 82.0792 479.283 82.0792C479.283 82.0792 479.283 82.0792 479.283 82.0792C479.283 82.0792 479.283 82.0792 479.283 82.0792C479.283 82.0792 479.283 82.0792 479.283 82.0792C479.283 82.079 479.283 82.0789 479.282 82.0787C479.281 82.0782 479.276 82.0776 479.268 82.0771C479.262 82.0759 479.258 82.0748 479.251 82.0737C479.24 82.0715 479.221 82.0692 479.205 82.067C479.183 82.0625 479.155 82.0581 479.123 82.0537C479.064 82.045 479.018 82.0363 478.95 82.0277C480.659 81.9689 481.354 81.0912 481.447 81.0206C481.652 80.8064 481.724 80.6728 481.74 80.63C481.776 80.5299 481.708 80.584 481.65 80.6474C481.512 80.8097 481.343 81.0807 481.17 81.4042C480.831 82.0323 480.497 82.7891 480.181 83.5825C479.543 85.1877 478.976 86.9244 478.455 88.6515C477.421 92.0869 476.583 95.4454 475.903 97.6387C475.627 98.5331 475.189 98.6264 474.383 101.412C473.436 104.666 472.078 110.842 471.053 114.754C471.125 116.392 471.208 117.999 471.289 119.639C471.175 120.24 471.048 120.852 470.933 121.377L470.937 121.359C469.691 127.14 468.217 129.338 467.311 133.116C467.278 133.256 467.149 133.848 466.962 134.723L466.985 133.627C467.66 137.457 469.309 146.662 469.433 147.262C469.739 148.752 470.011 149.76 470.289 150.696L464.848 148.968C466.698 146.625 467.973 144.617 477.592 135.236C479.866 133.019 481.924 131.445 483.965 129.427C485.301 128.106 487.552 125.715 489.874 123.161C490.067 122.97 490.678 122.535 490.925 122.42C496.09 119.65 501.604 116.504 502.094 115.772C505.126 114.837 510.445 112.449 515.521 110.091C517.711 109.066 520.227 109.909 521.296 112.078C523.654 116.894 525.98 121.489 526.928 123.666C527.316 124.559 527.286 125.102 527.781 126.561C528.006 127.016 528.208 128.191 528.138 128.694C527.931 129.444 527.703 130.462 527.463 131.952C526.993 134.864 526.387 141.551 525.808 146.419L525.841 145.927C525.857 147.084 525.862 148.141 525.848 149.024C525.764 153.93 525.285 155.683 525.251 157.881C525.246 158.231 525.253 158.576 525.267 158.922L521.147 155.939C522.747 155.338 524.298 154.547 526.535 153.815C534.935 151.071 542.731 149.166 549.37 146.999C554.697 145.261 559.567 143.295 564.192 141.357C567.297 140.355 569.685 142.674 568.715 145.79C567.847 149.72 567.056 153.511 566.171 157.175C565.487 159.159 564.649 161.058 564.003 163.16C563.59 164.505 563.173 165.859 562.753 167.221L562.906 166.494C562.122 173.04 561.307 179.763 560.475 186.57L560.503 186.093C560.488 189.619 560.47 193.167 560.451 196.725L555.806 192.756C572.55 190.209 589.515 187.667 605.328 185.319C609.822 184.651 616.736 183.79 623.356 182.901C626.769 182.373 628.594 185.947 626.143 188.38C617.499 196.625 609.668 204.384 614.659 201.751C612.824 204.005 602.104 214.218 593.739 222.177L593.981 221.914C589.976 226.425 586.56 230.269 585.206 231.861C581.264 236.499 578.504 240.484 575.42 244.141C574.116 245.688 572.86 247.167 571.635 248.604L568.634 241.35C579.835 242.346 589.194 243.328 603.537 244.233C603.826 244.259 604.615 244.448 604.882 244.561C605.283 244.718 605.688 244.876 606.098 245.035C610.329 246.681 615.03 248.041 617.51 249.08C618.108 249.331 618.708 249.605 619.315 249.896C623.887 251.822 624.055 257.06 619.582 259.206C617.107 260.249 614.347 261.203 611.318 262.642C607.908 264.264 603.404 266.457 598.653 268.778C598.587 268.81 598.387 268.898 598.318 268.924C590.212 272.113 581.408 275.597 575.826 277.713C574.188 278.332 573.445 278.12 571.059 278.894C567.252 280.128 563.298 281.531 560.118 282.804L562.199 280.697C560.505 285.335 559.684 288.598 560.911 287.839C560.5 288.743 560.1 289.645 559.711 290.546L556.207 284.202C567.242 287.036 577.807 288.531 588.265 290.632C591.635 291.31 595.391 292.076 599.417 292.902C599.677 292.957 600.392 293.201 600.629 293.32C609.543 297.772 619.898 302.974 630.189 308.114C634.945 310.504 633.869 316.742 628.583 317.362C618.236 318.601 607.96 319.855 599.022 321.012L599.302 320.971C593.227 322.109 587.778 323.167 583.361 324.086C570.181 326.828 570.637 327.427 551.029 330.321C549.426 330.558 547.824 330.788 546.176 331.024L550.508 327.316C549.49 329.983 548.421 332.775 547.236 335.93C545.704 340.007 544.111 343.932 542.615 347.717C542.576 347.83 542.441 348.158 542.388 348.265C538.733 354.946 535.475 361.183 533.619 367.19C532.428 369.463 531.3 371.66 530.215 373.785L530.729 371.565C530.636 377.076 530.589 382.141 530.416 386.922C530.399 391.753 525.453 393.699 522.191 390.136C519.356 386.831 516.757 383.627 514.408 380.349C513.36 379.664 512.312 378.978 511.263 378.293C510.103 377.047 508.944 375.8 507.784 374.554C507.638 373.966 507.493 373.378 507.347 372.789C505.689 370.968 503.902 369.084 502.049 367.175L502.616 367.682C494.786 362.223 486.049 356.601 479.543 351.954L486.908 350.266C486.538 350.992 486.174 351.694 485.817 352.368C482.22 359.167 476.03 370.688 469.558 382.649L469.808 382.092C464.052 397.03 457.988 412.621 454.464 421.459C453.095 425.07 449.156 425.521 447.065 422.274C446.754 421.772 446.458 421.294 446.178 420.84C441.6 413.423 440.82 413.371 439.175 408.489C438.037 406.905 436.899 405.32 435.761 403.735C434.86 402.866 433.959 401.998 433.058 401.129C432.55 400.351 432.037 399.559 431.52 398.755C431.463 398.666 431.305 398.391 431.259 398.295C426.878 389.241 422.184 378.898 418.026 370.351L423.978 371.753C423.554 372.072 423.23 372.309 422.826 372.604C409.219 382.489 388.387 394.631 369.475 399.421C366.032 400.312 362.777 400.904 359.717 401.353C354.744 402.088 348.508 402.258 343.692 402.722C336.675 403.37 335.045 404.468 326.128 404.978C313.79 405.686 292.966 405.297 277.751 404.68C277.744 404.68 277.723 404.679 277.716 404.679C274.063 404.476 270.579 404.262 267.737 404.118C263.441 403.895 261.46 404.121 258.463 403.953C246.023 403.222 235.841 402.284 223.803 401.095C211.092 398.129 212.442 396.875 208.83 394.799C207.554 393.99 204.634 392.403 202.468 390.56C201.435 389.678 200.464 388.611 200.21 387.856C199.894 387.024 200.321 386.884 200.495 386.913C200.635 386.919 200.785 386.941 200.938 386.888C201.093 386.839 201.235 386.705 201.358 386.575C201.482 386.445 201.61 386.344 201.741 386.246C201.875 386.156 201.987 386.031 202.167 386.032C202.014 385.771 202.334 386.136 202.783 386.378C203.002 386.508 203.286 386.661 203.581 386.805C203.848 386.934 204.144 387.067 204.462 387.201C205.718 387.728 207.057 388.166 208.344 388.554C210.924 389.325 213.426 389.94 215.77 390.513C220.54 391.66 225.074 392.722 231.107 393.93C246.597 395.832 262.401 396.906 277.979 397.558L277.945 397.557C284.919 397.708 292.088 397.725 299.181 397.656C301.234 397.974 303.313 398.282 305.422 398.581C305.422 398.582 305.422 398.583 305.422 398.583C314.169 398.807 317.883 397.785 322.575 397.387C334.947 396.193 351.053 395.307 367.277 391.206C384.717 386.384 403.161 376.826 419.127 365.405C421.294 363.729 423.98 364.383 425.2 366.836C429.757 376.291 434.26 385.673 438.59 394.703L438.362 394.302C443.678 402.623 448.786 410.625 453.543 418.058L447.224 418.754C449.759 412.125 452.133 405.899 454.285 400.211C455.877 396.005 458.868 387.805 462.039 379.189C462.07 379.104 462.182 378.857 462.224 378.776C468.147 367.42 474.52 355.306 476.811 351.647C477.829 350.021 478.535 349.791 479.506 348.001C479.725 347.569 479.944 347.137 480.163 346.705C480.956 345.179 482.673 344.799 484.064 345.81C491.649 351.197 499.234 356.583 506.819 361.969C506.917 362.041 507.18 362.278 507.262 362.366C513.065 368.448 518.867 374.53 524.67 380.612C525.843 381.939 527.019 383.267 528.2 384.594L522.241 386.922C522.332 381.823 522.398 376.702 522.443 371.565C522.441 371.244 522.632 370.434 522.771 370.145C526.968 361.751 531.127 353.281 535.26 344.779L535.11 345.141C537.458 338.249 539.789 331.34 542.111 324.434C542.43 323.484 543.638 322.463 544.624 322.282C558.767 319.677 572.885 317.045 586.879 314.514C590.522 313.854 594.164 313.195 597.804 312.537C597.844 312.529 597.963 312.512 598.003 312.507C607.866 311.292 617.72 310.077 627.565 308.864L626.365 315.772C616.48 310.878 606.606 305.989 596.742 301.104L597.669 301.424C583.248 298.515 568.846 295.607 554.463 292.7C551.949 292.2 550.702 289.902 551.589 287.496C552.763 284.341 553.937 281.188 555.11 278.035C555.406 277.232 556.571 276.066 557.366 275.75C569.985 270.786 582.589 265.831 595.182 260.885L594.887 261.014C601.784 257.649 608.678 254.288 615.568 250.93L615.782 258.389C611.044 256.428 606.309 254.467 601.576 252.506L602.811 252.808C591.167 251.84 579.534 250.869 567.911 249.893C564.113 249.59 562.642 245.989 565.088 243.067C572.58 234.195 580.07 225.334 587.559 216.483C587.604 216.429 587.747 216.276 587.796 216.226C594.002 210.033 600.206 203.846 606.41 197.666C610.947 193.147 615.854 188.195 620.882 183.111L624.516 190.256C610.209 192.602 595.181 195.092 582.6 196.906C574.759 198.038 571.37 197.732 561.188 199.964C561.045 199.76 560.903 199.556 560.76 199.352C559.43 199.603 558.172 199.847 556.962 200.087C554.761 200.447 553.042 198.956 553.029 196.725C552.882 192.98 552.707 189.673 552.568 186.093C552.568 186.002 552.585 185.732 552.595 185.641C552.842 182.499 553.143 179.15 553.597 175.12C553.861 172.779 554.25 169.381 554.696 165.527C554.713 165.378 554.805 164.946 554.849 164.802C556.916 157.995 559.444 149.715 561.355 143.538L566.593 148.67C563.89 149.549 561.588 150.291 559.988 150.796C556.241 151.981 557.502 151.128 554.022 152.272C548.065 154.235 535.514 158.964 527.291 161.664C526.119 162.049 524.817 162.464 523.432 162.898C520.46 163.892 517.961 162.056 517.943 158.922C517.998 154.89 518.114 150.209 518.205 145.927C518.204 145.823 518.226 145.513 518.239 145.408C518.848 141.485 519.389 137.9 519.685 135.474C519.998 132.906 520.308 130.31 520.617 127.69L520.996 129.958C518.595 125.34 516.138 120.648 513.656 115.903L519.191 117.808C511.086 121.84 502.827 125.943 494.516 129.972L495.783 129.078C491.732 133.184 487.652 137.27 483.556 141.294C478.996 145.771 472.797 151.196 471.392 152.62C470.843 153.177 470.386 153.671 469.992 154.119C467.374 156.758 463.766 155.594 463.116 151.935C462.559 149.612 462.018 148.523 461.608 146.462C460.926 143.037 460.222 139.098 459.515 134.916C459.447 134.535 459.474 133.49 459.554 133.111C460.522 128.741 461.587 124.121 462.65 119.555C462.651 119.551 462.654 119.539 462.655 119.535C464.479 111.871 466.404 104.39 467.894 98.4929C468.823 94.8205 469.782 91.1336 470.828 87.4146C471.353 85.555 471.898 83.6885 472.512 81.7872C472.819 80.8446 473.147 79.8718 473.536 78.8605C473.731 78.3584 473.944 77.8298 474.235 77.2243C474.396 76.8979 474.535 76.6119 474.834 76.1394C474.905 76.0291 474.981 75.9157 475.068 75.7968C475.185 75.6362 475.33 75.4511 475.513 75.2539C475.605 75.1546 475.708 75.0506 475.828 74.9414C475.962 74.8237 476.034 74.7509 476.336 74.5358C476.854 74.179 477.717 73.714 478.95 73.7071C479.055 73.7071 479.14 73.7071 479.234 73.7071C479.246 73.7071 479.257 73.7071 479.265 73.7071C479.265 73.7071 479.273 73.7071 479.277 73.7071C479.279 73.7071 479.28 73.7071 479.281 73.7071C479.282 73.7071 479.282 73.7071 479.283 73.7071C479.283 73.7071 479.283 73.7071 479.283 73.7071C479.283 73.7071 479.283 73.7071 479.283 73.7071C479.283 73.7071 479.283 73.7071 479.283 73.7071C479.283 73.7071 479.283 73.7071 479.283 73.7071C479.283 73.7071 479.283 73.7071 479.283 73.7071C479.283 73.7071 479.283 73.7071 479.283 73.7071C479.283 73.7071 479.283 73.7071 479.283 73.7071C479.283 73.7071 479.283 73.7071 479.283 73.7071C479.283 73.7071 479.283 73.7071 479.283 73.7071C479.283 76.569 479.283 64.1672 479.283 82.2929C479.283 82.2929 479.283 82.2929 479.283 82.2929C479.283 82.2929 479.283 82.2929 479.283 82.2929C479.283 82.2929 479.283 82.2929 479.283 82.2929C479.283 82.2929 479.283 82.2929 479.283 82.2929C479.283 82.2929 479.283 82.2929 479.283 82.2929C479.283 82.2929 479.283 82.2929 479.283 82.2929C479.282 82.2929 479.279 82.2929 479.272 82.2929C479.24 82.293 479.23 82.293 479.199 82.293C479.16 82.293 479.099 82.293 479.061 82.293C478.874 82.293 478.689 82.2931 478.503 82.2931C478.131 82.2932 477.758 82.2934 477.385 82.2935C476.637 82.2938 475.893 82.2941 475.148 82.2945C473.656 82.2952 472.162 82.2962 470.669 82.2973L473.366 81.3459C462.191 90.3658 450.922 99.4837 439.69 108.564L440.77 107.276C435.433 116.984 430.108 126.663 424.826 136.233C424.796 136.288 424.699 136.449 424.665 136.502C420.623 142.729 416.604 148.907 412.622 155.013C409.992 159.045 407.054 163.56 403.925 168.373C401.526 172.099 396.748 171.093 396.003 166.725C395.619 164.415 395.226 162.047 394.825 159.636L394.862 159.832C393.159 151.864 391.352 143.415 389.567 135.017L389.608 135.191C386.27 122.171 382.989 109.274 380.324 98.5233L388.051 99.2297C386.548 102.382 385.132 105.331 383.831 108.016C381.504 112.818 381.581 111.285 379.692 115.347C379.678 115.377 379.664 115.408 379.65 115.438C379.647 115.446 379.635 115.47 379.631 115.478C377.509 119.899 376.697 122.471 375.725 124.562C373.182 130.035 369.474 137.985 365.468 146.493L365.659 146.021C362.543 155.63 359.166 165.923 356.294 174.407C355.35 177.29 352.484 178.209 349.994 176.475C346.115 173.716 342.684 171.239 340.026 169.264L340.044 169.277C339.961 169.216 339.879 169.156 339.798 169.096C337.47 167.381 336.009 165.812 334.588 164.824C333.87 164.324 332.071 163.446 329.797 161.9C324.407 158.236 319.425 154.816 314.644 151.508C314.641 151.506 314.63 151.498 314.627 151.496C307.718 146.659 301.23 142.061 294.534 137.296L300.152 132.174C303.721 138.448 307.382 144.906 311.405 151.977C313.681 155.977 316.001 160.036 318.356 164.146C318.437 164.285 318.623 164.712 318.674 164.864C322.119 175.617 325.705 186.691 329.357 197.93L329.116 197.353C332.265 203.405 335.445 209.507 338.637 215.634C339.376 217.045 339.014 219.089 337.864 220.191C334.137 223.74 330.399 227.299 326.658 230.857C326.319 231.182 325.298 231.721 324.84 231.827C318.726 233.223 312.61 234.617 306.513 236L308.341 229.302C315.107 235.645 321.828 241.966 328.438 248.216L328.104 247.936C329.683 249.126 331.256 250.313 332.823 251.497C334.576 252.794 334.907 255.149 333.627 256.915C331.824 259.348 330.028 261.767 328.241 264.168C327.843 264.702 327.45 265.224 327.064 265.733C326.742 266.177 325.71 266.92 325.191 267.096C316.262 269.905 309.988 271.169 308.688 271.61C306.498 272.353 304.971 273.192 302.006 274.423C301.889 274.462 301.538 274.544 301.416 274.563C300.19 274.833 298.736 275.124 296.93 275.43C290.851 276.459 284.158 277.485 277.223 278.502L278.611 271.373C290.035 278.053 302.112 285.295 312.853 291.564C313.427 291.895 314.304 292.996 314.512 293.625C315.796 297.551 317.04 301.298 318.229 304.777C319.504 308.509 321.043 312.756 322.641 317.109C322.687 317.248 322.782 317.667 322.804 317.812C323.551 321.938 324.329 326.159 325.04 330.15C325.075 330.383 325.085 331.061 325.062 331.296C324.503 335.568 323.373 338.266 322.101 341.056C318.947 350.098 302.569 363.009 299.26 364.644C298.868 364.928 298.526 365.2 298.208 365.467C296.967 366.488 295.991 367.464 293.947 368.425ZM322.327 201.439C322.595 201.573 322.597 201.311 322.425 200.811C322.368 200.699 322.225 200.358 322.187 200.238C321.764 197.687 318.202 188.821 319.191 193.404C319.42 194.464 321.023 198.931 321.719 200.388C321.762 200.524 321.924 200.91 321.989 201.037C322.148 201.264 322.267 201.409 322.327 201.439ZM557.359 194.227C557.177 193.955 556.995 193.683 556.814 193.412C556.522 193.476 556.231 193.541 555.94 193.606L559.59 196.725C559.485 195.056 559.38 193.387 559.275 191.718C559.097 192.824 558.919 193.929 558.74 195.034C558.743 195.598 558.746 196.162 558.749 196.725L556.071 194.437C556.5 194.367 556.93 194.297 557.359 194.227Z" fill="#010C13"/>
<path d="M366.378 233.615C366.266 233.77 365.847 233.573 365.658 233.667C364.865 234.056 364.446 234 363.691 234.291C362.571 234.723 359.875 237.011 358.442 234.719C358.442 234.719 358.442 234.719 358.442 234.719C358.428 234.696 358.414 234.673 358.401 234.65C358.138 234.207 358.092 233.572 357.821 233.055C357.55 232.538 355.528 229.365 355.774 228.962C356.146 228.401 357.904 228.44 358.158 228.23C358.332 228.087 358.384 227.651 358.594 227.448C359.272 226.794 359.813 226.751 360.025 225.523C360.566 225.762 361.107 226.001 361.647 226.24C361.894 225.818 362.793 226.018 362.998 225.848C363.165 225.709 363.067 225.314 363.249 225.179C363.451 225.027 364.001 225.176 364.357 224.879C364.941 224.394 364.519 223.467 364.834 223.119C365.161 222.758 366.069 222.838 366.388 222.22C366.392 222.086 366.397 221.952 366.402 221.818C366.223 221.633 366.044 221.449 365.866 221.264C366.059 221.006 366.442 221.374 366.681 221.235C366.963 221.072 366.845 220.57 367.032 220.456C367.185 220.363 367.599 220.566 367.783 220.422C368.052 220.214 367.69 219.774 367.789 219.587C367.829 219.514 368.804 218.536 368.866 218.492C369.344 218.167 369.797 218.797 370.223 218.61C370.833 218.341 371.336 217.884 371.801 217.391C372.318 216.879 372.82 216.349 373.353 215.926C373.845 215.536 374.445 215.278 375.053 215.122C375.081 217.306 377.576 217.821 375.57 215.344C376.364 215.459 376.463 214.503 377.121 214.385C377.544 214.312 377.967 214.605 378.513 214.391C379.466 214.01 380.242 212.499 381.144 214.537C382.198 213.824 383.373 214.385 383.405 212.388C383.701 212.202 384.719 213.19 385.081 213.292C385.438 213.36 387.979 213.579 388.379 213.604C388.786 213.602 389.493 213.599 389.83 213.42C390.237 213.198 390.568 211.168 391.325 213.538C392.215 213.363 392.54 213.447 393.34 213.776C393.485 213.836 393.474 214.188 393.56 214.195C393.735 214.209 394.06 213.976 394.38 213.978C394.544 213.979 394.678 214.055 394.786 214.125C395.003 214.276 395.107 214.397 395.16 213.622C395.495 213.471 395.829 213.32 396.164 213.168C396.248 213.397 396.333 213.626 396.417 213.855C396.612 213.639 396.806 213.423 397.001 213.207C396.616 214.804 397.904 213.985 397.63 213.011C398.197 213.416 398.764 213.822 399.331 214.227C399.032 216.059 400.637 214.595 400.634 213.58C400.703 213.589 400.772 213.599 400.842 213.608C401.392 214.168 401.996 213.833 402.697 214.247C403.399 214.662 403.309 214.833 403.435 215.706C403.615 215.678 403.795 215.649 403.975 215.621C405.158 213.406 404.529 217.407 406.301 215.808C406.503 216.739 407.08 216.864 407.696 216.741L407.486 216.729C407.862 216.607 408.241 216.387 408.559 216.215C408.655 216.163 408.656 215.878 408.784 215.79C409.095 215.579 409.89 215.945 409.863 215.025C410.139 215.291 410.414 215.558 410.689 215.824C410.914 215.656 411.139 215.489 411.364 215.322C411.363 215.035 411.362 214.748 411.361 214.461C411.814 215.439 412.525 215.063 412.877 215.297C412.946 215.345 412.962 215.741 413.179 215.849C413.433 215.977 413.906 215.86 414.208 215.983C414.326 215.545 414.443 215.106 414.561 214.667C415.102 214.429 415.292 215.587 415.61 215.677C415.667 215.693 416.711 215.61 416.767 215.585C417.227 215.389 417.097 214.402 418.428 214.614C418.665 214.652 418.857 214.993 419.071 215.007C419.45 215.032 420.59 214.258 420.68 213.542C421.139 214.438 422.367 214.072 422.729 214.33C422.838 214.41 422.863 214.98 423.199 215.102C423.241 215.117 423.293 215.119 423.352 215.112C423.644 215.073 424.117 214.747 424.374 214.801C424.697 214.871 424.839 215.342 424.989 215.367C425.13 215.39 425.232 214.996 425.417 214.984C425.996 214.953 426.596 215.511 427.07 215.458C427.758 215.382 428.155 214.148 428.572 213.543C428.717 213.588 428.898 213.801 429.038 213.772C430.756 213.432 432.705 213.003 434.436 212.475C435.223 212.268 437.844 212.58 436.067 210.6C436.074 210.405 436.378 210.271 436.779 210.155C437.693 209.815 438.965 209.614 439.258 209.477C439.72 209.256 439.883 208.659 440.253 208.477C441.371 207.937 442.283 207.912 443.564 207.03C443.894 206.803 444.125 206.148 444.352 206.084C444.626 206.007 445.07 206.429 445.424 206.363C446.267 206.192 447.788 205.656 448.62 205.603C448.772 205.593 448.908 206.044 449.141 206.152C450.046 206.571 450.926 206.415 450.584 204.952C451.754 205.659 452.654 204.813 453.669 204.725C455.787 204.5 459.537 205.138 461.488 204.938C461.506 204.935 461.523 204.931 461.541 204.928C462.601 204.722 462.697 204.058 464.046 204.896C464.346 205.082 464.636 205.311 465 205.534C465.852 206.058 466.468 207.431 467.44 206.094C468.388 206.663 469.25 206.544 469.774 207.938C469.919 207.654 470.064 207.369 470.209 207.085C470.335 207.101 470.462 207.117 470.588 207.132C470.574 207.426 470.56 207.72 470.546 208.015C471.243 208.207 472.238 207.639 472.997 207.469C473.168 207.419 473.322 207.395 473.454 207.419C474.506 207.65 477.271 208.314 478.358 208.645C478.932 208.839 478.925 208.21 479.323 209.476C479.448 209.38 479.572 209.282 479.694 209.184C479.755 208.898 479.813 208.611 479.869 208.325C480.578 208.259 481.483 208.588 482.171 208.469C482.934 208.339 483.859 207.851 484.736 207.498C485.395 207.247 486.05 207.073 486.65 207.117C487.035 207.145 487.627 207.586 487.97 207.487C488.47 207.342 488.34 206.38 488.973 206.191C490.063 205.866 492.399 206.393 493.414 206.03C493.716 205.923 493.766 205.538 493.969 205.444C494.818 205.044 495.559 204.874 496.27 204.108C497.429 204.751 497.66 205.921 498.259 207.004C498.711 207.821 499.921 209.671 500.222 210.412C500.433 210.933 500.374 211.692 500.627 212.26C499.654 213.031 499.051 212.635 497.932 212.042C496.29 212.522 494.649 213.001 493.007 213.48C492.77 213.197 492.532 212.914 492.294 212.631C492.294 212.63 492.294 212.63 492.294 212.629C491.559 212.427 491.516 213.333 491.225 213.614C490.219 214.589 488.685 215.253 486.964 215.741C483.489 216.753 479.355 216.447 476.739 216.202C475.858 216.166 472.891 216.319 472.372 215.653C472.238 215.488 472.279 214.971 472.121 214.921C471.952 214.928 471.784 214.933 471.615 214.937C470.379 214.985 469.144 215.034 467.908 215.083C465.411 213.836 462.582 213.903 459.89 213.564C459.792 213.553 459.695 213.541 459.597 213.529C453.11 212.728 446.692 214.429 441.353 217.616C441.102 217.766 440.85 217.912 440.596 218.054C439.173 218.86 437.433 220.121 435.823 220.466C435.15 220.612 434.623 219.924 433.991 220.786C433.913 220.576 433.835 220.366 433.757 220.156C433.127 220.643 432.799 221.272 431.975 221.542C431.287 221.78 429.403 222.202 428.753 222.204C428.417 222.213 428.477 221.781 428.175 221.828C427.663 221.912 426.604 222.616 425.863 222.665C425.193 222.719 424.061 222.276 423.559 222.345C423.491 222.354 423.422 222.365 423.352 222.375C421.783 222.645 420.085 223.299 418.424 223.115C417.946 223.061 417.333 222.519 417.183 222.534C416.892 222.566 416.805 223.092 416.609 223.16C415.613 223.502 414.061 222.876 413.085 222.851C411.256 222.805 409.365 222.861 407.486 222.899C407.385 222.907 407.084 222.873 406.983 222.869C405.6 222.737 404.225 222.595 402.893 222.399C400.912 222.107 397.599 221.815 395.81 221.209C395.425 221.078 395.597 220.517 395.264 220.479C394.896 220.436 394.652 220.8 394.476 220.811C394.337 220.82 394.178 220.829 394.005 220.838C392.823 220.905 390.939 221.114 390.058 220.802C389.869 220.731 389.713 220.286 389.597 220.293C389.539 220.295 389.424 220.609 389.246 220.651C387.681 221.032 386.532 221.013 384.98 221.238C382.07 221.668 379.134 223.415 376.444 224.819C376.353 224.867 376.262 224.915 376.17 224.961C375.475 225.317 374.548 224.842 374.46 224.907C374.266 225.05 374.454 225.641 374.121 226.025C373.008 227.296 370.82 227.906 369.676 228.977C369.11 229.506 368.629 230.707 368.084 231.246C367.649 231.677 366.294 232.171 366.247 232.595C366.217 232.853 366.499 233.443 366.378 233.615ZM379.269 214.653C379.495 215.67 380.404 214.457 379.785 214.074C379.642 213.988 379.207 214.387 379.269 214.653ZM431.855 214.894C431.756 214.614 431.657 214.334 431.558 214.054C431.471 214.211 431.381 214.369 431.289 214.525C431.412 214.675 431.537 214.823 431.663 214.971C431.727 214.945 431.791 214.92 431.855 214.894ZM371.975 285.729C371.88 285.914 371.413 285.815 371.23 285.957C370.457 286.546 370.011 286.591 369.264 287.071C368.155 287.784 365.67 290.77 363.838 288.782C363.838 288.782 363.837 288.782 363.837 288.782C363.819 288.763 363.802 288.743 363.784 288.722C363.445 288.334 363.305 287.699 362.946 287.238C362.586 286.776 360.011 284.035 360.209 283.564C360.517 282.902 362.36 282.514 362.596 282.239C362.757 282.051 362.748 281.594 362.938 281.336C363.551 280.505 364.111 280.329 364.153 279.027C364.754 279.139 365.354 279.252 365.955 279.364C366.152 278.874 367.121 278.859 367.309 278.636C367.464 278.454 367.304 278.075 367.474 277.894C367.664 277.689 368.261 277.707 368.589 277.318C369.13 276.682 368.554 275.84 368.833 275.409C369.122 274.962 370.083 274.822 370.326 274.115C370.312 273.978 370.297 273.84 370.282 273.702C370.069 273.558 369.855 273.413 369.641 273.268C369.806 272.958 370.259 273.24 370.489 273.04C370.76 272.806 370.564 272.323 370.743 272.161C370.89 272.029 371.352 272.136 371.523 271.944C371.775 271.666 371.332 271.306 371.408 271.092C371.439 271.008 372.317 269.775 372.376 269.715C372.828 269.267 373.393 269.799 373.811 269.505C374.97 268.688 375.608 267.25 376.404 266.195C376.76 265.724 377.236 265.346 377.745 265.045C378.048 265.98 378.729 266.446 379.141 266.513C379.663 266.576 379.815 266.036 378.329 265.085C379.172 264.919 379.028 263.944 379.675 263.601C380.093 263.383 380.604 263.526 381.115 263.13C382.004 262.433 382.432 260.702 383.887 262.396C384.806 261.355 386.181 261.53 385.715 259.578C385.98 259.303 387.298 259.948 387.706 259.937C388.097 259.889 390.842 259.346 391.274 259.26C391.706 259.141 392.457 258.938 392.772 258.67C393.151 258.341 392.999 256.283 394.395 258.374C395.302 257.965 395.67 257.96 396.608 258.072C396.778 258.093 396.854 258.436 396.947 258.421C397.138 258.389 397.427 258.082 397.771 258.003C398.339 257.873 398.746 258.574 398.557 257.46C398.918 257.229 399.287 257.004 399.662 256.785C399.816 256.991 399.968 257.198 400.117 257.406C400.306 257.156 400.499 256.907 400.697 256.66C400.536 258.296 401.929 257.284 401.439 256.364C401.77 256.499 402.097 256.639 402.42 256.783C402.805 256.976 403.19 257.169 403.575 257.363C403.481 259.216 405.049 257.577 404.917 256.569C404.994 256.57 405.071 256.572 405.148 256.573C405.821 257.066 406.439 256.663 407.259 256.993C408.079 257.324 408.002 257.505 408.251 258.357C408.444 258.308 408.637 258.26 408.83 258.211C409.633 256.358 409.687 258.517 410.539 258.598C410.78 258.62 411.077 258.501 411.485 258.143C412.039 259.624 413.486 258.958 414.547 258.671C414.668 258.637 414.712 258.355 414.88 258.292C415.293 258.137 416.177 258.681 416.33 257.777C416.614 258.107 416.888 258.441 417.152 258.778C417.458 258.681 417.767 258.588 418.081 258.5C418.155 258.223 418.23 257.946 418.304 257.668C418.599 258.76 419.54 258.663 419.882 259.031C419.948 259.105 419.836 259.484 420.048 259.675C420.295 259.899 420.874 259.995 421.167 260.251C421.466 259.9 421.77 259.552 422.081 259.208C422.812 259.266 422.543 260.423 422.85 260.67C422.909 260.708 424.084 261.222 424.154 261.24C424.738 261.349 425.108 260.385 426.435 261.471C426.668 261.667 426.68 262.086 426.893 262.249C426.965 262.304 427.083 262.356 427.231 262.401C427.729 262.508 428.652 262.367 429.008 261.905C428.879 262.89 430.054 263.127 430.229 263.497C430.283 263.613 430.046 264.134 430.282 264.383C430.475 264.588 431.266 264.443 431.534 264.633C431.819 264.84 431.764 265.331 431.9 265.419C432.03 265.502 432.292 265.186 432.479 265.255C433.06 265.475 433.429 266.236 433.924 266.381C434.642 266.592 435.523 265.607 436.164 265.204C436.291 265.301 436.39 265.567 436.54 265.592C438.38 265.92 440.501 266.168 442.439 266.167C443.303 266.212 445.901 267.197 444.692 264.814C444.858 264.336 447.223 264.69 447.64 264.51C448.041 264.368 448.161 263.808 448.451 263.668C448.641 263.577 448.825 263.503 449.006 263.434C449.795 263.118 450.536 262.907 451.413 262.122C451.701 261.862 451.817 261.192 452.018 261.1C452.261 260.991 452.753 261.342 453.077 261.221C453.848 260.927 455.145 260.094 455.893 259.829C456.03 259.782 456.282 260.179 456.532 260.22C457.503 260.379 458.288 259.938 457.486 258.668C458.782 258.975 459.294 257.862 460.128 257.399C461.107 256.858 462.603 256.216 463.963 255.523C465.227 254.879 466.435 254.295 467.196 253.717C468.274 252.912 468.057 252.255 470.08 252.276C470.527 252.287 470.982 252.348 471.516 252.379C472.364 252.429 473.222 252.912 473.876 252.739C474.155 252.661 474.391 252.422 474.562 251.898C475.752 252.088 476.603 251.666 477.651 252.781C477.698 252.463 477.745 252.145 477.793 251.827C477.929 251.796 478.066 251.765 478.203 251.734C478.295 252.014 478.387 252.295 478.478 252.575C479.48 252.484 480.533 251.089 481.371 250.956C482.776 250.731 486.466 250.577 487.862 250.739C488.603 250.825 488.537 250.203 489.156 251.401C489.299 251.286 489.442 251.171 489.585 251.056C489.636 250.762 489.688 250.468 489.74 250.174C489.857 250.152 489.978 250.138 490.103 250.129C491.055 250.045 492.134 250.243 492.986 250.166C494.751 249.981 497.52 249.214 499.306 249.911C499.752 250.081 500.244 250.721 500.676 250.773C501.305 250.853 501.608 249.923 502.435 250.052C503.882 250.263 506.139 252.023 507.38 252.389C507.756 252.494 508.051 252.221 508.321 252.281C508.678 252.36 509.009 252.455 509.332 252.546C509.955 252.713 510.552 252.843 511.314 252.745C511.934 253.995 511.399 255.063 511.245 256.298C511.13 257.23 511.032 259.461 510.831 260.236C510.689 260.781 510.158 261.339 510.023 261.947C508.675 261.926 508.391 261.226 507.775 260.041C507.341 259.872 506.907 259.704 506.473 259.536C505.299 259.084 504.096 258.713 502.876 258.426C502.812 258.063 502.743 257.701 502.668 257.338C502.669 257.337 502.669 257.337 502.669 257.336C502.107 256.805 501.645 257.596 501.27 257.722C498.681 258.562 494.925 257.96 491.47 258.18C489.951 258.28 488.533 258.36 487.384 258.495C486.504 258.598 483.74 259.526 483.05 259.091C482.871 258.978 482.741 258.475 482.572 258.481C481.15 259.034 479.727 259.588 478.305 260.141C477.241 260.048 476.194 260.12 475.157 260.281C473.307 260.565 471.572 261.377 469.907 262.11C469.163 262.436 468.437 262.795 467.729 263.185C462.742 265.896 457.79 268.593 452.78 271.112C450.95 272.03 449.017 272.739 447.033 273.216C445.246 273.66 442.937 274.389 441.091 274.208C440.319 274.134 440.016 273.314 439.024 273.913C439.019 273.689 439.015 273.465 439.011 273.241C438.164 273.485 437.577 273.961 436.602 273.911C435.782 273.888 433.632 273.544 432.953 273.273C432.598 273.143 432.834 272.771 432.5 272.688C431.933 272.554 430.546 272.743 429.759 272.453C429.043 272.202 428.068 271.273 427.53 271.094C425.925 270.577 424.063 270.112 422.502 269.1C422.262 268.95 422.032 268.789 421.815 268.607C421.488 268.329 421.279 267.577 421.148 267.521C420.896 267.414 420.571 267.837 420.385 267.812C419.451 267.686 418.443 266.554 417.592 266.234C415.397 265.378 412.908 265.082 410.539 265.092C409.856 265.093 409.178 265.086 408.509 265.068C406.864 265.022 404.406 265.063 402.42 264.921C401.838 264.873 401.3 264.823 400.846 264.749C400.459 264.688 400.521 264.106 400.193 264.131C399.828 264.161 399.671 264.569 399.509 264.618C398.359 264.933 395.987 265.81 394.847 265.759C394.628 265.743 394.351 265.355 394.23 265.394C394.168 265.413 394.124 265.75 393.945 265.842C392.377 266.659 391.156 266.987 389.582 267.694C387.593 268.6 385.708 270.159 384.021 271.809C383.024 272.774 382.007 273.706 380.955 274.532C380.279 275.063 379.242 274.804 379.159 274.892C378.977 275.085 379.26 275.642 378.966 276.114C377.988 277.679 375.79 278.833 374.748 280.202C374.234 280.878 373.905 282.219 373.414 282.901C373.022 283.446 371.677 284.278 371.689 284.722C371.696 284.991 372.076 285.525 371.975 285.729ZM381.964 263.132C382.457 264.051 383.094 262.562 382.355 262.393C382.184 262.356 381.834 262.893 381.964 263.132ZM438.968 267.645C438.968 267.348 438.969 267.051 438.97 266.754C438.824 266.873 438.676 266.99 438.526 267.105C438.597 267.288 438.669 267.47 438.744 267.652C438.819 267.65 438.893 267.648 438.968 267.645ZM392.117 318.319C392.002 318.451 391.634 318.192 391.454 318.252C390.698 318.501 390.319 318.379 389.605 318.539C388.546 318.777 385.899 320.558 384.768 318.102C384.768 318.102 384.768 318.102 384.768 318.102C384.757 318.078 384.746 318.054 384.735 318.029C384.53 317.556 384.538 316.934 384.331 316.388C384.123 315.842 382.523 312.438 382.78 312.086C383.165 311.603 384.77 311.925 385.02 311.764C385.19 311.653 385.272 311.238 385.48 311.076C386.152 310.551 386.651 310.597 386.941 309.441C387.417 309.76 387.893 310.08 388.369 310.4C388.629 310.031 389.436 310.37 389.636 310.239C389.8 310.131 389.742 309.732 389.918 309.63C390.115 309.515 390.607 309.749 390.956 309.519C391.529 309.144 391.216 308.176 391.532 307.889C391.859 307.593 392.684 307.817 393.024 307.269C393.039 307.14 393.054 307.011 393.069 306.882C392.92 306.674 392.771 306.466 392.622 306.258C392.819 306.039 393.14 306.458 393.37 306.362C393.641 306.25 393.573 305.744 393.753 305.663C393.9 305.598 394.263 305.862 394.443 305.752C394.706 305.594 394.409 305.109 394.514 304.944C394.556 304.879 395.526 304.089 395.586 304.057C396.049 303.819 396.414 304.503 396.819 304.391C397.94 304.078 398.751 303.016 399.618 302.357C400.005 302.063 400.474 301.896 400.956 301.811C401.106 303.921 403.249 304.63 401.393 302.074C402.056 302.254 402.046 301.339 402.559 301.258C402.891 301.207 403.273 301.504 403.688 301.301C404.421 300.938 404.724 299.455 405.861 301.361C406.571 300.606 407.661 300.985 407.161 299.07C407.336 298.859 408.398 299.647 408.717 299.674C408.782 299.68 408.93 299.667 409.125 299.642C409.903 299.507 411.354 299.275 411.629 299.203C411.981 299.1 412.591 298.919 412.83 298.66C413.117 298.343 412.813 296.316 414.153 298.385C414.868 297.981 415.171 297.973 415.954 298.069C416.096 298.087 416.189 298.426 416.264 298.409C416.419 298.374 416.629 298.062 416.904 297.974C417.359 297.828 417.755 298.509 417.5 297.409C417.776 297.166 418.057 296.927 418.344 296.691C418.489 296.889 418.631 297.087 418.772 297.287C418.904 297.028 419.039 296.77 419.179 296.513C419.194 298.152 420.24 297.058 419.757 296.173C420.418 296.438 421.062 296.721 421.689 297.022C421.713 298.871 423.007 297.177 422.885 296.178C422.956 296.178 423.027 296.177 423.098 296.178C423.725 296.66 424.294 296.259 425.038 296.617C425.773 296.979 425.691 297.161 425.858 298.024C426.031 297.986 426.204 297.949 426.378 297.914C427.032 296.562 427.13 297.471 427.433 298.06C427.62 298.454 427.91 298.706 428.554 298.055C428.842 299.565 430.037 298.921 430.822 298.561C430.914 298.519 430.947 298.235 431.07 298.161C431.373 297.981 432.044 298.425 432.121 297.508C432.338 297.8 432.555 298.092 432.771 298.384C432.991 298.24 433.211 298.096 433.431 297.952C433.461 297.667 433.492 297.381 433.523 297.096C433.82 298.113 434.499 297.81 434.787 298.078C434.844 298.132 434.814 298.527 434.996 298.656C435.209 298.809 435.646 298.739 435.903 298.892C436.056 298.468 436.21 298.043 436.364 297.619C436.874 297.436 436.916 298.606 437.191 298.727C437.24 298.748 438.183 298.77 438.236 298.751C438.67 298.602 438.662 297.608 439.83 297.95C440.038 298.012 440.171 298.37 440.362 298.405C440.698 298.467 441.804 297.811 441.963 297.109C442.275 298.045 443.414 297.803 443.709 298.096C443.798 298.186 443.757 298.755 444.044 298.91C444.277 299.035 444.954 298.651 445.255 298.761C445.573 298.88 445.637 299.369 445.781 299.419C445.916 299.466 446.086 299.096 446.275 299.119C446.864 299.198 447.33 299.876 447.795 299.939C448.468 300.032 449.19 298.96 449.811 298.518C449.943 298.607 450.053 298.867 450.2 298.885C451.404 299.043 452.701 299.289 453.963 299.567C454.004 299.575 454.131 299.585 454.172 299.596C454.803 299.771 455.423 299.954 456.018 300.137C456.839 300.388 458.672 302.269 458.541 299.618C458.907 299.219 460.857 300.604 461.259 300.687C461.659 300.769 462.056 300.364 462.374 300.41C463.335 300.55 463.953 300.992 465.185 300.787C465.23 300.78 465.277 300.763 465.324 300.741C465.578 300.599 465.856 300.231 465.982 300.254C466.159 300.289 466.284 300.844 466.52 300.906C467.082 301.056 468.159 300.963 468.702 301.071C468.802 301.092 468.821 301.561 468.964 301.711C469.524 302.299 470.192 302.238 470.05 300.746C470.78 301.583 471.427 300.773 472.064 300.667C473.424 300.477 476.01 300.315 476.977 299.345C477.585 298.745 477.337 298.132 478.547 298.306C478.818 298.342 479.105 298.416 479.438 298.445C479.571 298.456 479.711 298.491 479.854 298.532C480.657 298.69 481.482 299.04 481.487 297.691C482.497 297.682 483.073 297.138 484.21 298.041C484.165 297.727 484.121 297.414 484.076 297.1C484.178 297.048 484.281 296.997 484.383 296.945C484.53 297.199 484.677 297.454 484.824 297.708C485.609 297.46 486.097 295.949 486.738 295.686C487.814 295.242 490.754 294.498 491.923 294.428C492.543 294.391 492.328 293.804 493.139 294.855C493.225 294.721 493.31 294.588 493.396 294.454C493.361 294.163 493.326 293.872 493.292 293.581C493.979 293.277 494.97 293.33 495.627 293.046C496.306 292.751 497.084 292.146 497.886 291.671C497.93 291.656 498.057 291.597 498.101 291.586C498.73 291.257 499.369 291.004 499.975 291.017C500.328 291.025 500.912 291.43 501.212 291.314C501.649 291.145 501.427 290.202 501.979 289.982C502.931 289.605 505.105 290.004 505.985 289.593C506.246 289.472 506.25 289.089 506.424 288.985C507.149 288.547 507.801 288.341 508.362 287.548C509.482 288.122 509.82 289.266 510.48 290.304C510.979 291.088 512.277 292.852 512.63 293.568C512.879 294.071 512.908 294.824 513.199 295.372C512.402 296.183 511.812 295.823 510.734 295.296C509.299 295.855 507.864 296.413 506.43 296.971C506.183 296.704 505.937 296.437 505.691 296.17C505.691 296.169 505.691 296.169 505.69 296.168C505.003 296.006 505.062 296.903 504.829 297.196C503.991 298.253 502.596 299.007 501.011 299.588L501.22 299.505C498.65 300.605 495.533 301.258 493.554 301.957C492.87 302.199 490.88 303.537 490.209 303.23C490.036 303.15 489.8 302.688 489.666 302.721C488.661 303.483 487.656 304.244 486.652 305.006C485.371 305.126 484.208 305.574 483.087 306.13C481.788 306.767 480.478 307.446 479.102 307.901C474.245 309.515 468.99 310.065 463.894 309.321C461.685 309.006 459.487 308.657 457.303 308.252C456.022 308.013 454.327 308.123 453.11 307.667C453.012 307.631 452.93 307.569 452.855 307.497L453.078 307.528C452.751 307.246 452.548 306.777 451.932 307.211C451.95 306.987 451.967 306.764 451.984 306.541C451.348 306.742 450.904 307.205 450.218 307.181C449.641 307.16 448.122 307.024 447.626 306.883C447.368 306.811 447.512 306.407 447.267 306.382C446.847 306.342 445.888 306.817 445.31 306.753C444.786 306.694 443.957 306.118 443.546 306.142C442.069 306.227 440.411 306.761 438.887 306.399C438.466 306.298 437.977 305.698 437.841 305.699C437.577 305.701 437.441 306.215 437.258 306.263C436.329 306.504 435.01 305.728 434.139 305.606C431.713 305.267 429.138 305.14 426.678 304.853C426.32 304.811 425.965 304.772 425.612 304.733C424.065 304.535 421.507 304.725 420.025 304.558C419.704 304.517 419.702 303.934 419.436 303.975C419.141 304.022 419.049 304.434 418.92 304.489C418.008 304.856 416.129 305.745 415.172 305.665C414.988 305.646 414.724 305.259 414.626 305.295C414.576 305.312 414.568 305.642 414.426 305.727C413.692 306.168 413.051 306.443 412.376 306.704C411.836 306.918 411.276 307.113 410.659 307.35C407.794 308.448 404.811 310.452 401.76 311.515C401.095 311.747 400.285 311.136 400.199 311.185C400.011 311.292 400.136 311.896 399.8 312.214C398.682 313.266 396.632 313.504 395.5 314.356C394.941 314.777 394.406 315.864 393.865 316.298C393.433 316.646 392.154 316.905 392.077 317.309C392.03 317.554 392.241 318.172 392.117 318.319ZM404.344 301.551C404.691 302.535 405.245 301.33 404.668 300.981C404.538 300.902 404.253 301.296 404.344 301.551ZM452.431 300.964C452.454 300.668 452.478 300.372 452.502 300.076C452.357 300.184 452.212 300.293 452.067 300.401C452.121 300.586 452.175 300.772 452.229 300.957C452.296 300.96 452.364 300.962 452.431 300.964Z" fill="#010C13"/>
</svg>
