<svg width="24" height="24" viewBox="0 0 24 24" fill="none" xmlns="http://www.w3.org/2000/svg">
<path d="M17.6415 6.35195C16.0115 4.72195 13.7015 3.78195 11.1615 4.04195C7.49148 4.41195 4.47148 7.39195 4.06148 11.0619C3.51148 15.9119 7.26148 20.0019 11.9915 20.0019C15.1815 20.0019 17.9215 18.1319 19.2015 15.4419C19.5215 14.7719 19.0415 14.0019 18.3015 14.0019C17.9315 14.0019 17.5815 14.2019 17.4215 14.5319C16.2915 16.9619 13.5815 18.5019 10.6215 17.8419C8.40148 17.3519 6.61148 15.5419 6.14148 13.3219C5.30148 9.44195 8.25148 6.00195 11.9915 6.00195C13.6515 6.00195 15.1315 6.69195 16.2115 7.78195L14.7015 9.29195C14.0715 9.92195 14.5115 11.0019 15.4015 11.0019H18.9915C19.5415 11.0019 19.9915 10.5519 19.9915 10.0019V6.41195C19.9915 5.52195 18.9115 5.07195 18.2815 5.70195L17.6415 6.35195Z" fill="#111827"/>
</svg>
