<svg width="48" height="48" viewBox="0 0 48 48" fill="none" xmlns="http://www.w3.org/2000/svg">
<path d="M23.1688 3C22.1039 3 18.6809 18.8519 18.6809 18.8519L15.41 15.0741L9.62893 8.03704L11.9109 13.5926C11.9109 13.5926 15.7143 21.5926 15.41 22.7037C15.1057 23.8148 4 25.0741 4 25.0741L7.423 26.7037C7.423 26.7037 16.3228 27.5185 16.551 28.7037C16.7792 29.8889 12.8998 44.1111 12.8998 44.1111L15.7903 37.6667C15.7903 37.6667 18.1484 31.5185 18.833 31.1482C19.5176 30.7778 21.5714 38.8519 21.5714 38.8519L24.3859 45L25.9833 38.8519L28.2653 31.1482L31.7643 34.4815L36.5565 38.037L32.7532 30.1111C32.7532 30.1111 31.3079 28.037 31.0797 27.5926C30.8515 27.1481 33.1335 26.7037 33.1335 26.7037L35.948 25.3704L38.8385 23.963C38.8385 23.963 42.1855 21.3704 43.8589 20.7778C45.5324 20.1852 31.7643 20.7778 31.7643 20.7778C31.7643 20.7778 36.3283 6.11111 35.948 5.96296C35.5677 5.81481 27.6567 19.8148 27.3525 18.4815C27.0482 17.1481 24.2337 3 23.1688 3Z" fill="#38BDF8"/>
<path d="M22.2502 8.25611C22.1923 8.51398 22.0295 8.87131 21.9463 9.1743C21.5948 10.4598 21.4319 10.9305 21.1183 12.0991C20.6437 13.8226 19.55 19.0643 19.1243 18.9476C19.1243 18.9476 19.1242 18.9476 19.1242 18.9476C19.1199 18.9467 19.1155 18.9457 19.1111 18.9447C19.0266 18.9287 19.0383 18.4362 18.9543 18.3666C18.8743 18.279 18.2503 18.1947 18.3567 17.5533C18.5142 16.6222 19.1743 14.4704 19.2839 13.9817C19.3589 13.6412 19.3989 13.2251 19.4912 12.7965C19.7894 11.418 20.0072 10.711 20.1736 9.43977C20.3799 8.96647 20.5887 8.49366 20.8001 8.02482C20.9365 7.37018 21.316 6.43161 21.4279 6.04338C21.5196 5.72161 21.5133 5.52181 21.6182 5.18427C21.7349 4.81674 21.9819 4.25814 22.2591 3.58515C22.3483 3.3758 22.4151 3.21718 22.5143 3.03328C22.5565 2.95541 22.6062 2.86868 22.6825 2.77675C22.7391 2.7135 22.8745 2.53749 23.1688 2.52089C23.3976 2.51151 23.5756 2.64678 23.6254 2.68146C23.6991 2.73578 23.7594 2.7958 23.8088 2.84886C23.8873 2.92782 23.9634 3.02604 24.0217 3.10492C24.1359 3.25856 24.2359 3.42504 24.3335 3.64526C24.6437 4.34186 24.8836 5.45713 25.1845 6.32326C25.2329 6.4285 25.2814 6.53543 25.33 6.6439C25.3484 6.55175 25.3668 6.46018 25.3851 6.36924C25.529 6.81992 25.4944 7.02541 25.6017 7.44261C25.7247 7.9248 25.866 8.15494 25.9469 8.48153C26.0139 8.75254 26.0383 9.12656 26.1261 9.47439C26.2524 9.97799 26.3176 9.84679 26.3993 10.1152C26.4343 10.2217 26.9461 12.2222 26.9701 12.3367C27.1661 13.1978 27.0564 13.3016 27.196 13.9937C27.4903 15.4492 27.8514 16.9318 28.1893 18.2905C28.1713 18.2126 28.1167 18.0174 27.8898 17.853C27.6586 17.6822 27.3574 17.6962 27.2469 17.7328C27.0563 17.7945 27.0864 17.8058 27.0816 17.7995C27.09 17.7903 27.1639 17.7147 27.21 17.6583C27.33 17.5173 27.4477 17.3605 27.5682 17.1958C28.0099 16.5868 28.4848 15.8912 28.9366 15.2422C28.5219 16.4753 30.2624 14.283 29.2589 14.8771C29.8026 14.1726 30.0234 13.5615 30.4913 12.8597C30.7931 12.4063 31.0547 12.1219 31.4646 11.4566C32.19 10.277 32.8177 8.87011 33.3389 8.7294C34.1744 7.28036 34.9159 6.27394 35.2432 5.40871C35.2696 5.38144 35.2883 5.36135 35.341 5.31706C35.3885 5.27921 35.4436 5.23314 35.5618 5.1772C35.6733 5.13117 35.9043 5.02526 36.2631 5.15415C36.5131 5.25115 36.6588 5.44039 36.723 5.56275C36.79 5.69062 36.8074 5.77874 36.8203 5.84796C36.843 6.01204 36.8328 5.98795 36.8346 6.04189C36.8331 6.11855 36.825 6.18743 36.8153 6.25075C36.8004 6.33521 36.7764 6.43983 36.7508 6.53189C36.7034 6.69588 36.6399 6.88331 36.5772 7.05425C36.4514 7.39737 36.32 7.7193 36.2519 7.93492C36.1281 8.36949 35.1065 11.6496 34.9385 12.1845C34.7774 12.719 34.4932 13.6605 34.3857 14.12C34.2498 14.6988 34.4539 15.1924 33.7718 16.0896C33.4475 17.2716 33.3101 17.6836 32.9308 18.7661C32.8614 18.9642 32.7994 18.967 32.7651 19.0786C32.6891 19.3262 32.6089 19.734 32.4815 20.1641C32.3832 20.4963 32.2776 20.7511 32.2171 20.9187L31.7439 20.304C31.9404 20.3044 32.037 20.2877 31.9895 20.1908C32.4829 20.1389 32.948 20.0892 33.4354 20.0393C33.5966 20.0695 33.7778 20.0991 33.9442 20.1293C34.195 20.0806 34.4559 20.0318 34.7104 19.9835C34.4215 20.2648 36.2214 20.0447 35.6302 19.9081C36.5649 19.9342 37.5016 19.9635 38.436 19.9983C38.3138 20.3075 40.4877 19.9951 40.3036 19.8325C40.4122 19.8315 40.5196 19.8306 40.6257 19.8298C41.567 19.9101 42.4084 19.8152 43.6202 19.9578C43.7791 19.9827 43.8918 19.9929 44.1082 20.0627C44.1421 20.0838 44.2421 20.0795 44.4314 20.2681C44.4767 20.3185 44.526 20.3894 44.5584 20.4828C44.5975 20.5871 44.6035 20.7384 44.5709 20.8475C44.5012 21.0739 44.3872 21.1478 44.3224 21.1996C44.192 21.286 44.1304 21.2981 44.0527 21.3248C43.6619 21.4326 43.6294 21.4124 43.3621 21.4225C43.1369 21.5451 42.9137 21.6785 42.6921 21.8174C41.7307 22.8659 41.5494 22.1518 39.7831 23.7906C39.5748 23.8597 39.3038 24.0118 39.024 24.2025C39.0139 24.2102 38.9826 24.2299 38.9711 24.2353C38.1325 24.5872 37.054 25.2034 36.2623 25.6486C36.1949 25.6865 36.1683 25.7165 36.1333 25.751C36.0977 25.7834 36.0595 25.8173 35.9795 25.8628C35.5647 26.0983 34.4415 26.5628 34.5447 26.6836C34.146 26.8234 33.7472 26.9632 33.3485 27.103C33.3418 27.1069 33.335 27.1108 33.3282 27.1147C33.307 27.1245 33.2435 27.1458 33.2205 27.1501C32.9186 27.2389 32.5995 27.3433 32.3046 27.4568C32.3195 27.5023 32.3343 27.5478 32.3491 27.5933C32.1665 27.5992 31.9599 27.6349 31.7756 27.6926C31.685 27.7206 31.5965 27.7579 31.5518 27.7831C31.5307 27.7928 31.5226 27.8073 31.5565 27.7625C31.5936 27.7438 31.6705 27.4669 31.579 27.3363C31.7131 27.5905 31.9306 27.9073 32.0405 28.1065C32.0926 28.199 32.0494 28.2543 32.2187 28.5381C32.4162 28.8699 32.8398 29.4532 33.0855 29.8423C33.096 29.85 33.1039 29.8539 33.1135 29.8601C33.1216 29.8719 33.143 29.9082 33.1491 29.9211C33.2843 30.0438 33.4195 30.1664 33.5547 30.289C33.9478 31.0164 33.8993 31.3617 34.0956 31.8054C34.1311 31.8852 34.8328 33.3155 34.8736 33.3911C35.2071 34.0105 35.2692 33.7599 36.1167 35.6074C36.2675 35.9364 36.3428 36.2249 36.4823 36.5208C36.6059 36.7832 36.8864 37.2951 37.1564 37.7492C37.477 38.4219 36.7574 39.017 36.1601 38.5714C35.7129 38.2975 35.3015 38.0693 35.2113 38.0764C34.7374 37.5389 33.195 36.4706 32.7772 36.1068C32.6512 35.9968 32.6776 35.8981 32.2781 35.5765C32.1022 35.4348 31.7546 35.1998 31.4072 34.9628C31.3954 34.9538 31.3616 34.9257 31.351 34.9154C31.0859 34.6821 30.8211 34.4474 30.651 34.2773C30.2556 33.8816 30.1661 33.686 29.9886 33.5091C29.8208 33.342 29.6183 33.2381 29.385 33.0154C28.8387 32.4926 28.3707 31.9654 27.928 31.5022L28.7341 31.287C28.6642 31.4878 28.5993 31.683 28.5425 31.873C28.2127 32.9758 28.1069 34.005 27.9146 34.9525C27.8348 35.1782 27.7288 35.3917 27.6573 35.632C27.3295 36.7306 26.9825 37.8802 26.6287 39.043L26.6348 39.0211C26.099 41.022 25.5448 43.062 25.027 44.9523C25.0099 45.015 24.9911 45.0817 24.9711 45.152C24.8092 45.7634 24.0966 45.8279 23.8361 45.2517C23.2243 43.8268 22.0766 40.7968 22.0822 41.8006C21.9195 41.5519 21.3856 40.2861 20.9136 39.153C20.9028 39.1288 20.8766 39.0559 20.8703 39.0302C20.6888 38.2019 20.505 37.4189 20.4304 37.1454C20.2496 36.483 20.023 35.9759 19.8683 35.4593C19.6438 34.7123 19.4553 34.0704 19.2337 33.4126C19.122 33.0833 19.0028 32.7511 18.8595 32.4134C18.7873 32.2443 18.7122 32.0803 18.6256 31.9242C18.5858 31.8528 18.541 31.7816 18.5095 31.7439C18.498 31.7288 18.4835 31.7221 18.522 31.7573C18.536 31.7692 18.5912 31.8165 18.6959 31.8503C18.7843 31.889 19.0396 31.8943 19.1874 31.8033C19.3306 31.714 19.262 31.7511 19.2474 31.7852C19.0497 32.0757 18.8705 32.6459 18.745 32.897C18.5875 33.2145 18.343 33.5295 18.1458 33.9577C17.6748 34.9703 16.9048 36.9413 16.506 37.9411C16.5029 37.9491 16.4932 37.9726 16.4897 37.9804C16.4887 37.9826 16.4876 37.9848 16.4866 37.987C16.4022 38.1679 16.3023 38.1999 16.1633 38.4504C15.6215 39.4257 15.1191 40.566 15.4364 40.4667C14.7244 41.7089 14.3026 42.9642 13.7695 44.1722C13.7301 44.2613 13.6896 44.3528 13.6479 44.4467C13.2478 45.338 11.8514 44.8378 12.1088 43.8953C12.8427 41.1654 14.111 36.5093 14.5616 34.2126C14.8522 32.7158 14.7541 32.7235 15.3163 30.567C15.4341 30.093 15.564 29.6077 15.6558 29.075C15.6804 28.9738 15.6843 28.7364 15.705 28.8666C15.8354 29.2283 15.8755 29.0969 15.8094 29.0706C15.7548 29.0231 15.6563 28.9622 15.5466 28.9061C15.3288 28.7945 15.0845 28.699 14.8298 28.6188C14.3305 28.4624 13.8224 28.3749 13.3421 28.3924C11.8393 28.0372 10.5872 27.9213 9.46063 27.5672C9.31782 27.6012 9.17302 27.6353 9.03392 27.6704C8.83842 27.6488 8.64718 27.6284 8.45961 27.609C8.40808 27.5544 8.34697 27.4988 8.29389 27.4442C7.99581 27.4092 7.6774 27.3834 7.36228 27.3669C7.31287 27.3619 7.18138 27.3267 7.13673 27.305C6.05168 26.8403 4.84313 26.4003 4.01218 26.0034C3.89947 25.9496 3.77563 25.8902 3.64212 25.8258C2.81991 25.4309 2.99954 24.3465 3.9062 24.2468C6.05771 24.0207 10.5867 23.4386 12.2745 23.1176C13.2322 22.9458 13.2548 22.8266 13.8372 22.8892C14.0375 22.8163 14.2361 22.7386 14.4175 22.6559C14.5212 22.5677 14.6139 22.4785 14.6821 22.3924C14.7319 22.3681 14.7923 22.3327 14.8085 22.3208C14.8364 22.3142 14.7929 22.28 14.71 22.512C14.693 22.63 14.7114 22.482 14.6925 22.3866C14.6782 22.2774 14.6523 22.1465 14.6235 22.0199C14.5638 21.7591 14.4849 21.4807 14.4024 21.2112C14.2346 20.6658 14.043 20.1276 13.8534 19.6488C13.2068 18.0137 12.1106 15.7578 11.2497 13.907C11.2463 13.8998 11.2366 13.8781 11.2337 13.8708C11.0469 13.4086 10.8749 12.9677 10.7261 12.5623C10.5343 12.039 10.3592 11.3584 10.151 10.8543C9.84803 10.1207 9.62635 10.0032 9.24088 9.07271C9.14771 8.84767 9.04682 8.59395 8.94045 8.31984C8.61068 7.51445 9.65235 6.89149 10.204 7.56457C11.3201 8.97877 12.8574 11.0642 13.7622 12.1464C14.0748 12.5203 14.2652 12.6581 14.4838 12.9141C15.0082 13.5278 15.472 14.0843 15.947 14.6329L15.9354 14.6192C16.3014 15.0204 16.6735 15.4171 17.0824 15.8291C17.9172 17.028 17.685 17.063 17.8283 17.5345C17.9374 17.8913 18.3575 18.9115 18.3547 19.1105C18.3527 19.2502 18.0073 19.034 18.0256 19.2115C16.8245 17.9492 16.4139 17.3374 15.5976 16.1747C15.3887 15.9345 15.1799 15.6944 14.971 15.4542C14.969 15.4519 14.9632 15.445 14.9613 15.4427C13.5026 13.6751 12.044 11.9074 10.5853 10.1398C10.4777 9.92084 10.3702 9.70189 10.2626 9.48294C10.2627 9.48286 10.2628 9.48279 10.2629 9.48271C9.84292 8.89877 9.52839 8.6115 9.24838 8.34967L10.0845 7.84991C10.1602 7.98172 10.2318 8.10812 10.2987 8.24656C10.9551 9.60522 11.7292 11.3744 12.5494 13.3304L12.5343 13.2963C13.805 16.2403 15.5379 18.9295 16.0229 22.8715C15.95 23.123 15.8024 23.2579 15.7202 23.3327C15.6171 23.4218 15.5407 23.4685 15.461 23.5157C15.2905 23.6133 15.163 23.6665 15.0216 23.7234C14.7479 23.8312 14.4777 23.9132 14.2304 23.9826C13.7173 24.1253 13.2237 24.2341 12.7424 24.3331C11.7918 24.5265 10.8951 24.675 10.0955 24.8032C8.87939 25.0154 4.91736 25.6253 4.06198 25.6207L4.23646 24.5774C4.23758 24.5781 4.23869 24.5788 4.2398 24.5795C4.42657 24.6945 4.44432 24.7984 4.65224 24.9015C5.64992 25.3466 6.6476 25.7917 7.64528 26.2368L7.47015 26.1888C8.45143 26.258 9.43936 26.347 10.423 26.4517C11.4955 26.6279 12.5762 26.8076 13.6634 27.0299C14.207 27.1424 14.7535 27.2643 15.3065 27.4251C15.5753 27.5041 15.8634 27.597 16.146 27.7199C16.29 27.7833 16.4393 27.8557 16.5925 27.9585C16.7428 28.0769 16.9611 28.18 17.0724 28.6033C16.9315 31.1441 16.3124 33.0063 15.8477 35.132C15.1021 38.2033 14.3166 41.2457 13.5107 44.2777L12.322 43.852C13.2771 41.6954 14.2309 39.543 15.1844 37.3949L15.1703 37.4288C16.1779 35.1051 16.5036 33.1124 18.5063 30.5443C18.6485 30.4643 18.8425 30.4321 18.9972 30.4577C19.1361 30.4793 19.2294 30.5239 19.3088 30.5706C19.4627 30.6686 19.5024 30.7209 19.5713 30.7953C19.6695 30.9083 19.7379 31.0176 19.7917 31.1076C19.9048 31.3003 19.9827 31.4659 20.0628 31.6435C20.2154 31.9859 20.3417 32.318 20.4637 32.6542C20.7058 33.3257 20.9176 33.9904 21.1221 34.6599C21.5284 35.9982 21.8962 37.3319 22.2435 38.6809L22.2019 38.5632C22.5564 39.339 22.9103 40.1146 23.2636 40.89C23.7949 42.0564 24.4305 43.3951 25.039 44.701L23.6906 44.8194C23.946 43.8085 24.2016 42.8199 24.4469 41.9453C24.6906 41.076 24.9191 40.7467 25.1175 39.573C25.1567 39.5704 25.1959 39.5677 25.2351 39.565C25.3021 39.2519 25.3564 38.9724 25.4079 38.7024C25.4089 38.6985 25.4121 38.6869 25.4133 38.683C25.5486 38.0837 25.6681 37.5314 25.89 36.7611C26.1607 35.8223 26.8896 33.3421 27.1485 32.5183C27.2825 32.091 27.3019 32.2707 27.4201 31.8703C27.4873 31.6424 27.5698 31.3254 27.6604 30.969C27.8065 30.4609 28.3147 30.3298 28.7004 30.6914C29.2546 31.1795 29.9355 31.7688 30.4122 32.223C30.9184 32.7052 31.6624 33.4818 32.2042 34.0198L32.1443 33.9693C32.3122 34.0994 32.4622 34.213 32.5838 34.3C33.99 35.3074 35.5055 36.3487 37.0072 37.4296L35.8746 38.3643C35.5198 37.6515 35.1707 36.9334 34.8362 36.2141C34.5293 35.5536 34.2055 34.67 34.1045 34.4655C33.9071 34.0661 33.7706 33.9844 33.6309 33.7195C33.1617 32.8289 32.5952 31.5722 32.0799 30.4342L32.1405 30.5381C31.7858 30.003 31.453 29.494 31.1702 29.0704C30.9281 28.7012 30.7077 28.3936 30.4428 27.9196C30.2992 27.6871 30.3459 27.2655 30.4612 27.1026C30.5703 26.9183 30.6604 26.8511 30.7422 26.7829C30.8978 26.6633 31.0177 26.6057 31.1331 26.5501C31.3622 26.4439 31.5686 26.374 31.7746 26.3088C32.1872 26.1813 32.5771 26.0866 32.9966 26.0007L32.8269 26.0564C33.7606 25.6128 34.6995 25.1655 35.6388 24.7178C36.5954 24.2492 37.5595 23.7768 38.5194 23.3075L38.3921 23.3866C39.7291 22.3705 41.0519 21.4149 42.5224 20.6005C42.8409 20.43 43.1876 20.2494 43.6171 20.0949C43.6286 20.0909 43.6305 20.0893 43.6162 20.0963C43.6089 20.0999 43.5975 20.1057 43.58 20.1165C43.5694 20.127 43.528 20.1346 43.4234 20.2586C43.3753 20.3197 43.3148 20.4176 43.2881 20.5569C43.2574 20.6899 43.2907 20.879 43.3331 20.9647C43.4241 21.1637 43.5357 21.2309 43.5921 21.2694C43.7189 21.3397 43.6918 21.3154 43.707 21.3234C43.7059 21.3222 43.6218 21.3069 43.5328 21.298C43.372 21.2809 43.1723 21.2692 42.9693 21.2607C42.5611 21.2442 42.1546 21.2387 41.7152 21.2363C40.8565 21.2323 39.9534 21.2435 39.0729 21.2576C37.3123 21.2865 35.6141 21.3292 34.3654 21.3441C33.7558 21.3517 33.9092 21.25 33.4058 21.2688C32.8461 21.29 32.531 21.3677 32.2687 21.3836C32.1323 21.3921 31.9496 21.4028 31.7917 21.4128C31.3061 21.4378 31.0169 21.0543 31.1574 20.5889C31.7067 18.7005 32.694 15.2807 33.2021 13.7817C33.3082 13.4705 33.4484 13.2625 33.5041 13.0735C33.5325 12.9777 33.5469 12.748 33.6305 12.4457C33.9717 11.21 34.2741 10.1455 34.5728 9.08112C34.718 8.56276 34.8678 8.02491 35.0082 7.49343C35.0775 7.23076 35.1467 6.96216 35.2123 6.68329C35.2426 6.55439 35.2758 6.40466 35.299 6.28436C35.3101 6.22745 35.3243 6.14414 35.3296 6.10239C35.3322 6.08546 35.3358 6.04607 35.3356 6.04742C35.3359 6.04817 35.3351 6.0484 35.3374 6.07473C35.3407 6.09804 35.3421 6.13699 35.3749 6.22004C35.4063 6.29526 35.4922 6.46315 35.7178 6.55384C36.0142 6.65461 36.1671 6.54922 36.2253 6.52418C36.2879 6.48855 36.3037 6.46922 36.3045 6.46939C36.3131 6.46144 36.3104 6.46313 36.3031 6.47085C36.2846 6.49049 36.2614 6.5182 36.2379 6.54747C36.1849 6.61376 36.1301 6.68785 36.0754 6.76383C34.8051 8.6126 33.5447 10.7739 32.2254 12.9034C31.5661 13.9738 30.8982 15.0502 30.2031 16.1156C29.8605 16.6396 29.5006 17.1784 29.1266 17.6982C28.9444 17.9506 28.7444 18.2197 28.5319 18.4749C28.4158 18.6124 28.3249 18.7206 28.1586 18.8794C28.1203 18.9152 28.0817 18.9493 28.0409 18.9821C27.986 19.0263 27.9189 19.0755 27.8378 19.1191C27.7782 19.1418 27.6098 19.2715 27.2681 19.2041C26.9075 19.1223 26.7428 18.7847 26.7161 18.6267C26.5822 18.0063 26.4625 17.4001 26.3408 16.798C26.1074 15.636 26.0797 14.8046 26.0435 14.6445C25.9616 14.2813 25.815 14.076 25.6317 13.36C25.0202 10.9738 24.3758 7.70337 23.6511 5.5101C23.5308 5.14761 23.3846 4.75572 23.2123 4.36488C23.1299 4.18012 23.0368 3.98428 22.9403 3.81764C22.8949 3.73967 22.8438 3.66218 22.8098 3.62463C22.7958 3.6088 22.7773 3.59513 22.796 3.61831C22.8027 3.62101 22.8869 3.74639 23.1688 3.75988C23.4873 3.74674 23.5602 3.61482 23.5689 3.62245C23.5891 3.60522 23.5733 3.62641 23.5649 3.64487C23.5437 3.68469 23.4987 3.7756 23.4694 3.84546C23.3955 4.01524 23.3363 4.17593 23.2696 4.35655C22.9664 5.14161 22.3227 7.18713 22.2724 7.59004C22.2404 7.8304 22.3149 7.96727 22.2502 8.25611ZM31.9739 10.7919C32.0361 11.0212 32.8095 9.49387 32.3949 9.98866C32.3018 10.0996 31.9574 10.7332 31.9739 10.7919ZM26.2106 39.5169C26.2624 39.5142 26.3142 39.5115 26.366 39.5088C26.3953 39.3305 26.4245 39.1523 26.4537 38.9741L26.4493 38.9899C26.458 38.9463 26.4667 38.9027 26.4754 38.8591C26.4528 38.8985 26.4302 38.938 26.4076 38.9775L26.4116 38.9631C26.3724 39.0373 26.3332 39.1115 26.2939 39.1858C26.2662 39.2961 26.2384 39.4065 26.2106 39.5169Z" fill="#002842"/>
</svg>
